<?xml version="1.0" encoding="utf-8"?>
<svg width="641px" height="641px" viewbox="0 0 641 641" version="1.1" xmlns:xlink="http://www.w3.org/1999/xlink" xmlns="http://www.w3.org/2000/svg">
  <g id="Icone+" transform="translate(0.5 0.5)">
    <path d="M0 640L640 640L640 0L0 0L0 640Z" id="Stroke-8" fill="none" fill-rule="evenodd" stroke="none" />
    <path d="M266.667 0C388.267 13.6 480 116.267 480 238.4C480 360.533 388.267 463.2 266.667 476.8L266.667 450.133C373.333 436.533 453.333 345.867 453.333 238.4C453.333 130.933 373.333 40.2667 266.667 26.6667L266.667 0ZM213.333 450.142L213.333 476.808C91.7333 463.181 0 360.542 0 238.408C0 116.248 91.7333 13.5815 213.333 0.00814317L213.333 26.6748C106.667 40.2481 26.6667 130.941 26.6667 238.408C26.6667 345.875 106.667 436.515 213.333 450.142ZM346.667 238.398C346.667 223.731 334.667 211.731 320 211.731L266.667 211.731L266.667 158.398C266.667 143.731 254.667 131.731 240 131.731C225.333 131.731 213.333 143.731 213.333 158.398L213.333 211.731L160 211.731C145.333 211.731 133.333 223.731 133.333 238.398C133.333 253.064 145.333 265.064 160 265.064L213.333 265.064L213.333 318.398C213.333 333.064 225.333 345.064 240 345.064C254.667 345.064 266.667 333.064 266.667 318.398L266.667 265.064L320 265.064C334.667 265.064 346.667 253.064 346.667 238.398Z" transform="translate(80 81.60239)" id="Fill-27" fill="#000000" fill-rule="evenodd" stroke="none" />
  </g>
</svg>