<?xml version="1.0" encoding="utf-8"?>
<svg width="686px" height="686px" viewbox="0 0 686 686" version="1.1" xmlns:xlink="http://www.w3.org/1999/xlink" xmlns="http://www.w3.org/2000/svg">
  <g id="IconeRicerca" transform="translate(0.5 0.5)">
    <path d="M0 685L685 685L685 0L0 0L0 685Z" id="Stroke-10" fill="none" fill-rule="evenodd" stroke="none" />
    <path d="M199.792 57.0832C121.017 57.0832 57.0832 121.017 57.0832 199.792C57.0832 278.567 121.017 342.5 199.792 342.5C278.566 342.5 342.5 278.567 342.5 199.792C342.5 121.017 278.566 57.0832 199.792 57.0832M0 199.792C0 89.3354 89.3354 0 199.792 0C310.248 0 399.583 89.3354 399.583 199.792C399.583 310.248 310.248 399.583 199.792 399.583C89.3354 399.583 0 310.248 0 199.792M85.625 199.792C85.625 136.715 136.715 85.625 199.792 85.625C207.783 85.625 214.063 91.9042 214.063 99.8958C214.063 107.887 207.783 114.167 199.792 114.167C152.412 114.167 114.167 152.412 114.167 199.792C114.167 207.783 107.887 214.063 99.8958 214.063C91.9042 214.063 85.625 207.783 85.625 199.792ZM127.298 246.606C129.011 254.313 124.159 262.019 116.452 263.731C108.746 265.444 101.04 260.592 99.3274 252.885C97.6149 245.179 102.467 237.473 110.173 235.76C117.88 234.048 125.3 238.9 127.298 246.606ZM505.473 505.473C494.341 516.604 476.075 516.604 464.943 505.473L361.337 401.581C350.206 390.45 350.206 372.468 361.337 361.337C372.468 350.206 390.45 350.206 401.581 361.337L505.473 464.943C516.604 476.075 516.604 494.341 505.473 505.473Z" transform="translate(85.625 85.62499)" id="Fill-7" fill="#000000" fill-rule="evenodd" stroke="none" />
  </g>
</svg>