<?xml version="1.0" encoding="utf-8"?>
<svg width="622px" height="622px" viewbox="0 0 622 622" version="1.1" xmlns:xlink="http://www.w3.org/1999/xlink" xmlns="http://www.w3.org/2000/svg">
  <defs>
    <linearGradient x1="0" y1="0.49999988" x2="1.0000002" y2="0.49999988" id="gradient_1">
      <stop offset="0" stop-color="#DB143B" />
      <stop offset="1" stop-color="#FF9900" />
    </linearGradient>
  </defs>
  <path d="M308.767 0C138.079 0.932475 0 139.59 0 310.497L0 310.497C0 481.41 138.074 620.073 308.767 621L308.767 621L312.233 621C482.921 620.073 621 481.41 621 310.497L621 310.497C621 139.59 482.921 0.932475 312.227 0L312.227 0L308.767 0ZM286.618 95.5393L334.388 95.5393C360.767 95.5393 382.157 116.93 382.157 143.309L382.157 143.309L238.848 143.309C238.848 116.93 260.233 95.5393 286.618 95.5393L286.618 95.5393ZM477.691 167.188C504.07 167.188 525.461 188.573 525.461 214.958L525.461 214.958L525.461 406.02C525.461 432.404 504.07 453.784 477.691 453.784L477.691 453.784L477.691 167.188ZM167.194 513.49L167.194 167.188L453.812 167.188L453.812 453.784L262.733 453.784C237.539 476.641 212.346 499.486 187.158 522.343L187.158 522.343C184.782 524.495 181.967 525.461 179.209 525.461L179.209 525.461C173.058 525.461 167.194 520.652 167.194 513.49L167.194 513.49ZM95.5393 406.02L95.5393 214.958C95.5393 188.573 116.919 167.188 143.309 167.188L143.309 167.188L143.309 453.784C116.919 453.784 95.5393 432.404 95.5393 406.02L95.5393 406.02Z" id="Fill-4" fill="url(#gradient_1)" fill-rule="evenodd" stroke="none" />
  <path d="M47.7697 0L95.5393 0C121.918 0 143.309 21.3907 143.309 47.7697L143.309 47.7697L0 47.7697C0 21.3907 21.3851 0 47.7697 0L47.7697 0Z" transform="translate(238.84814 95.539856)" id="Path" fill="none" fill-rule="evenodd" stroke="none" />
  <path d="M0 0C26.3789 0 47.7697 21.3851 47.7697 47.7697L47.7697 47.7697L47.7697 238.831C47.7697 265.216 26.3789 286.596 0 286.596L0 286.596L0 0Z" transform="translate(477.69122 167.1878)" id="Path-2" fill="none" fill-rule="evenodd" stroke="none" />
  <path d="M0 346.302L0 0L286.618 0L286.618 286.596L95.5393 286.596C70.3457 309.452 45.152 332.298 19.9639 355.155L19.9639 355.155C17.5878 357.306 14.7735 358.272 12.0154 358.272L12.0154 358.272C5.86448 358.272 0 353.464 0 346.302L0 346.302Z" transform="translate(167.19513 167.1878)" id="Path-3" fill="none" fill-rule="evenodd" stroke="none" />
  <path d="M0 238.831L0 47.7697C0 21.3851 21.3795 0 47.7697 0L47.7697 0L47.7697 286.596C21.3795 286.596 0 265.216 0 238.831L0 238.831Z" transform="translate(95.539795 167.1878)" id="Path-4" fill="none" fill-rule="evenodd" stroke="none" />
</svg>