<?xml version="1.0" encoding="utf-8"?>
<svg width="638px" height="638px" viewbox="0 0 638 638" version="1.1" xmlns:xlink="http://www.w3.org/1999/xlink" xmlns="http://www.w3.org/2000/svg">
  <g id="IconeFrecciaSu" transform="matrix(-4.371139E-08 -1 1 -4.371139E-08 0.5000305 637.5)">
    <path d="M0 637L637 637L637 0L0 0L0 637Z" id="Stroke-3" fill="none" fill-rule="evenodd" stroke="none" />
    <path d="M45.4526 7.76344C82.8764 45.4526 120.3 82.8764 157.989 120.566C120.3 157.989 82.8764 195.413 45.4526 233.102C35.1014 243.453 18.1147 243.453 7.76344 233.102C-2.58781 222.751 -2.58781 206.03 7.76344 195.413C32.7126 170.464 57.9272 145.515 82.8764 120.566C57.9272 95.3509 32.7126 70.4018 7.76344 45.4526C-2.58781 35.1014 -2.58781 18.1147 7.76344 7.76344C18.1147 -2.58781 35.1014 -2.58781 45.4526 7.76344" transform="translate(235.61807 201.91289)" id="Fill-1" fill="#000000" fill-rule="evenodd" stroke="none" />
  </g>
</svg>