<?xml version="1.0" encoding="utf-8"?>
<svg width="759px" height="759px" viewbox="0 0 759 759" version="1.1" xmlns:xlink="http://www.w3.org/1999/xlink" xmlns="http://www.w3.org/2000/svg">
  <g id="IconeCuore" transform="translate(0.5 0.5)">
    <path d="M0 758L758 758L758 0L0 0L0 758Z" id="Stroke-8" fill="none" fill-rule="evenodd" stroke="none" />
    <path d="M468.739 383.78C541.065 264.711 503.165 109.321 383.812 36.6793C264.711 -35.6466 109.321 2.25343 36.6793 121.638C-35.6466 240.708 2.25343 396.098 121.638 468.739C240.708 541.065 396.098 503.165 468.739 383.78Z" transform="translate(126.28996 126.290924)" id="Path" fill="#FFFFFF" fill-rule="evenodd" stroke="none" />
    <path d="M43.5732 132.954C127.269 -0.0117634 302.872 -39.8068 435.522 43.5732C568.488 127.269 608.283 302.872 524.903 435.522C441.207 568.488 265.604 608.283 132.954 524.903C-0.0117634 441.207 -39.8068 265.604 43.5732 132.954M500.269 415.309C572.594 296.24 534.694 140.85 415.341 68.2086C296.24 -4.11721 140.85 33.7828 68.2086 153.168C-4.1172 272.237 33.7828 427.627 153.168 500.268C272.237 572.594 427.627 534.694 500.269 415.309Z" transform="translate(94.761566 94.761566)" id="Fill-3" fill="#000000" fill-rule="evenodd" stroke="none" />
    <path d="M311.16 25.5895C352.534 64.1212 350.955 130.13 307.97 166.767C262.206 205.899 216.41 245.094 170.614 284.257C124.819 245.094 79.0227 205.899 33.2269 166.767C-9.72641 130.13 -11.3056 64.1212 30.0686 25.5895C71.1269 -12.9422 136.82 -7.25719 170.614 37.907C204.409 -7.25719 270.102 -12.9422 311.16 25.5895" transform="translate(208.3924 268.4545)" id="Fill-25" fill="#000000" fill-rule="evenodd" stroke="none" />
  </g>
</svg>