<?xml version="1.0" encoding="utf-8"?>
<svg width="640px" height="640px" viewbox="0 0 640 640" version="1.1" xmlns:xlink="http://www.w3.org/1999/xlink" xmlns="http://www.w3.org/2000/svg">
  <g id="IconeViaggioReligioso" transform="translate(0.5 0.5)">
    <path d="M0 639L639 639L639 0L0 0L0 639Z" id="Stroke-10" fill="none" fill-rule="evenodd" stroke="none" />
    <path d="M305.668 21.8848C323.773 122.794 341.851 223.436 359.956 324.345C362.086 336.885 373.269 346.177 386.075 346.177L399.388 346.177L399.388 452.677L386.075 452.677C312.59 452.677 252.95 393.037 252.95 319.552L252.95 26.6773C252.95 -5.80517 300.05 -10.0652 305.668 21.8848ZM226.312 319.558C226.312 393.043 166.672 452.683 93.1875 452.683L79.875 452.683L79.875 346.183L93.1875 346.183C105.967 346.183 117.15 336.864 119.28 324.35C137.385 223.442 155.49 122.799 173.595 21.8905C179.186 -10.0595 226.312 -5.79948 226.312 26.683L226.312 319.558ZM53.25 346.183L53.25 452.683C53.25 467.326 41.2687 479.308 26.625 479.308C11.9812 479.308 0 467.326 0 452.683L0 346.183C0 331.539 11.9812 319.558 26.625 319.558C41.2687 319.558 53.25 331.539 53.25 346.183ZM426 346.183C426 331.539 437.981 319.558 452.625 319.558C467.269 319.558 479.25 331.539 479.25 346.183L479.25 452.683C479.25 467.326 467.269 479.308 452.625 479.308C437.981 479.308 426 467.326 426 452.683L426 346.183Z" transform="translate(79.875 79.81729)" id="Fill-20" fill="#000000" fill-rule="evenodd" stroke="none" />
  </g>
</svg>