<?xml version="1.0" encoding="utf-8"?>
<svg width="664px" height="664px" viewbox="0 0 664 664" version="1.1" xmlns:xlink="http://www.w3.org/1999/xlink" xmlns="http://www.w3.org/2000/svg">
  <g id="Icone+" transform="translate(0.5 0.5)">
    <path d="M0 663L663 663L663 0L0 0L0 663Z" id="Stroke-3" fill="none" fill-rule="evenodd" stroke="none" />
    <path d="M82.875 55.25L27.625 55.25C12.4312 55.25 0 42.8187 0 27.625C0 12.4312 12.4312 7.66748e-15 27.625 7.66748e-15L82.875 7.66748e-15L138.125 7.66748e-15L193.375 7.66748e-15C208.569 7.66748e-15 221 12.4312 221 27.625C221 42.8187 208.569 55.25 193.375 55.25L138.125 55.25L82.875 55.25Z" transform="translate(220.99997 303.87497)" id="Fill-1" fill="#000000" fill-rule="evenodd" stroke="none" />
  </g>
</svg>