<?xml version="1.0" encoding="UTF-8"?>
<svg xmlns:xlink="http://www.w3.org/1999/xlink" xmlns="http://www.w3.org/2000/svg" width="794px" height="661px" viewbox="0 0 794 661" version="1.1">
  <path d="M793.2 132.2L793.2 198.3C720.049 198.3 661 257.349 661 330.5C661 403.651 720.049 462.7 793.2 462.7L793.2 572.867C793.2 621.34 753.54 661 705.067 661L88.1333 661C39.66 661 0 621.34 0 572.867L0 462.7C73.1507 462.7 132.2 403.651 132.2 330.5C132.2 257.349 73.1507 198.3 0 198.3L0 132.2L0 88.1333C0 39.66 39.66 0 88.1333 0L705.067 0C753.54 0 793.2 39.66 793.2 88.1333L793.2 132.2ZM588.29 169.657C597.103 161.284 597.103 147.183 588.29 138.81C579.917 129.997 565.816 129.997 557.443 138.81L204.91 491.343C196.097 499.716 196.097 513.817 204.91 522.19C213.283 531.003 227.384 531.003 235.757 522.19L588.29 169.657ZM594.9 440.667C594.9 392.193 555.24 352.533 506.767 352.533C458.293 352.533 418.633 392.193 418.633 440.667C418.633 489.14 458.293 528.8 506.767 528.8C555.24 528.8 594.9 489.14 594.9 440.667L594.9 440.667ZM374.567 220.333C374.567 171.86 334.907 132.2 286.433 132.2C237.96 132.2 198.3 171.86 198.3 220.333C198.3 268.807 237.96 308.467 286.433 308.467C334.907 308.467 374.567 268.807 374.567 220.333L374.567 220.333ZM330.5 220.333C330.5 196.097 310.67 176.267 286.433 176.267C262.197 176.267 242.367 196.097 242.367 220.333C242.367 244.57 262.197 264.4 286.433 264.4C310.67 264.4 330.5 244.57 330.5 220.333ZM550.833 440.667C550.833 416.43 531.003 396.6 506.767 396.6C482.53 396.6 462.7 416.43 462.7 440.667C462.7 464.903 482.53 484.733 506.767 484.733C531.003 484.733 550.833 464.903 550.833 440.667Z" id="Fill-5" fill="#000000" fill-rule="evenodd" stroke="none"></path>
</svg>
