<?xml version="1.0" encoding="utf-8"?>
<svg width="1019px" height="1019px" viewbox="0 0 1019 1019" version="1.1" xmlns:xlink="http://www.w3.org/1999/xlink" xmlns="http://www.w3.org/2000/svg">
  <defs>
    <path d="M506.433 0C226.475 1.52943 0 228.953 0 509.271L0 509.271C0 789.598 226.465 1017.03 506.433 1018.55L506.433 1018.55L512.118 1018.55C792.076 1017.03 1018.55 789.598 1018.55 509.271L1018.55 509.271C1018.55 228.953 792.076 1.52943 512.109 0L512.109 0L506.433 0ZM470.105 156.702L548.455 156.702C591.721 156.702 626.806 191.786 626.806 235.052L626.806 235.052L391.754 235.052C391.754 191.786 426.829 156.702 470.105 156.702L470.105 156.702ZM783.499 274.219C826.765 274.219 861.849 309.294 861.849 352.569L861.849 352.569L861.849 665.945C861.849 709.22 826.765 744.286 783.499 744.286L783.499 744.286L783.499 274.219ZM274.228 842.216L274.228 274.219L744.333 274.219L744.333 744.286L430.929 744.286C389.607 781.776 348.285 819.247 306.972 856.736L306.972 856.736C303.075 860.265 298.459 861.849 293.935 861.849L293.935 861.849C283.847 861.849 274.228 853.963 274.228 842.216L274.228 842.216ZM156.702 665.945L156.702 352.569C156.702 309.294 191.768 274.219 235.052 274.219L235.052 274.219L235.052 744.286C191.768 744.286 156.702 709.22 156.702 665.945L156.702 665.945Z" id="path_1" />
    <path d="M117.517 26.1122C94.1885 -4.99231 48.9783 -8.93564 20.6287 17.6635L20.6287 17.6635C-7.73942 44.281 -6.70752 89.6294 22.8491 114.911L22.8491 114.911C54.405 141.897 85.9701 168.883 117.517 195.869L117.517 195.869C149.082 168.883 180.638 141.897 212.194 114.911L212.194 114.911C241.75 89.6294 242.791 44.281 214.414 17.6635L214.414 17.6635C201.746 5.78738 185.733 0.00135918 169.803 0.00135918L169.803 0.00135918C150.049 0.00135918 130.443 8.89229 117.517 26.1122" transform="translate(391.75412 411.3219)" id="path_2" />
    <clipPath id="mask_1">
      <use xlink:href="#path_1" />
    </clipPath>
    <clipPath id="mask_2">
      <use xlink:href="#path_2" />
    </clipPath>
  </defs>
  <g id="Group-7">
    <path d="M506.433 0C226.475 1.52943 0 228.953 0 509.271L0 509.271C0 789.598 226.465 1017.03 506.433 1018.55L506.433 1018.55L512.118 1018.55C792.076 1017.03 1018.55 789.598 1018.55 509.271L1018.55 509.271C1018.55 228.953 792.076 1.52943 512.109 0L512.109 0L506.433 0ZM470.105 156.702L548.455 156.702C591.721 156.702 626.806 191.786 626.806 235.052L626.806 235.052L391.754 235.052C391.754 191.786 426.829 156.702 470.105 156.702L470.105 156.702ZM783.499 274.219C826.765 274.219 861.849 309.294 861.849 352.569L861.849 352.569L861.849 665.945C861.849 709.22 826.765 744.286 783.499 744.286L783.499 744.286L783.499 274.219ZM274.228 842.216L274.228 274.219L744.333 274.219L744.333 744.286L430.929 744.286C389.607 781.776 348.285 819.247 306.972 856.736L306.972 856.736C303.075 860.265 298.459 861.849 293.935 861.849L293.935 861.849C283.847 861.849 274.228 853.963 274.228 842.216L274.228 842.216ZM156.702 665.945L156.702 352.569C156.702 309.294 191.768 274.219 235.052 274.219L235.052 274.219L235.052 744.286C191.768 744.286 156.702 709.22 156.702 665.945L156.702 665.945Z" id="Clip-5" fill="none" fill-rule="evenodd" stroke="none" />
    <g clip-path="url(#mask_1)">
      <path d="M506.433 0C226.475 1.52943 0 228.953 0 509.271L0 509.271C0 789.598 226.465 1017.03 506.433 1018.55L506.433 1018.55L512.118 1018.55C792.076 1017.03 1018.55 789.598 1018.55 509.271L1018.55 509.271C1018.55 228.953 792.076 1.52943 512.109 0L512.109 0L506.433 0ZM470.105 156.702L548.455 156.702C591.721 156.702 626.806 191.786 626.806 235.052L626.806 235.052L391.754 235.052C391.754 191.786 426.829 156.702 470.105 156.702L470.105 156.702ZM783.499 274.219C826.765 274.219 861.849 309.294 861.849 352.569L861.849 352.569L861.849 665.945C861.849 709.22 826.765 744.286 783.499 744.286L783.499 744.286L783.499 274.219ZM274.228 842.216L274.228 274.219L744.333 274.219L744.333 744.286L430.929 744.286C389.607 781.776 348.285 819.247 306.972 856.736L306.972 856.736C303.075 860.265 298.459 861.849 293.935 861.849L293.935 861.849C283.847 861.849 274.228 853.963 274.228 842.216L274.228 842.216ZM156.702 665.945L156.702 352.569C156.702 309.294 191.768 274.219 235.052 274.219L235.052 274.219L235.052 744.286C191.768 744.286 156.702 709.22 156.702 665.945L156.702 665.945Z" id="Fill-4" fill="#000000" fill-rule="evenodd" stroke="none" />
    </g>
    <path d="M117.517 26.1122C94.1885 -4.99231 48.9783 -8.93564 20.6287 17.6635L20.6287 17.6635C-7.73942 44.281 -6.70752 89.6294 22.8491 114.911L22.8491 114.911C54.405 141.897 85.9701 168.883 117.517 195.869L117.517 195.869C149.082 168.883 180.638 141.897 212.194 114.911L212.194 114.911C241.75 89.6294 242.791 44.281 214.414 17.6635L214.414 17.6635C201.746 5.78738 185.733 0.00135918 169.803 0.00135918L169.803 0.00135918C150.049 0.00135918 130.443 8.89229 117.517 26.1122" transform="translate(391.75412 411.3219)" id="Clip-2" fill="none" fill-rule="evenodd" stroke="none" />
    <path d="M117.517 26.1122C94.1885 -4.99231 48.9783 -8.93564 20.6287 17.6635L20.6287 17.6635C-7.73942 44.281 -6.70752 89.6294 22.8491 114.911L22.8491 114.911C54.405 141.897 85.9701 168.883 117.517 195.869L117.517 195.869C149.082 168.883 180.638 141.897 212.194 114.911L212.194 114.911C241.75 89.6294 242.791 44.281 214.414 17.6635L214.414 17.6635C201.746 5.78738 185.733 0.00135918 169.803 0.00135918L169.803 0.00135918C150.049 0.00135918 130.443 8.89229 117.517 26.1122" transform="translate(391.75412 411.3219)" id="Fill-1" fill="#000000" fill-rule="evenodd" stroke="none" />
  </g>
</svg>