<?xml version="1.0" encoding="utf-8"?>
<svg width="500px" height="123px" viewbox="0 0 500 123" version="1.1" xmlns:xlink="http://www.w3.org/1999/xlink" xmlns="http://www.w3.org/2000/svg">
  <defs>
    <linearGradient x1="0" y1="0.49999988" x2="1.0000002" y2="0.49999988" id="gradient_1">
      <stop offset="0" stop-color="#DB143B" />
      <stop offset="1" stop-color="#FF9900" />
    </linearGradient>
    <linearGradient x1="-7.981852E-06" y1="0.49999037" x2="0.9999938" y2="0.49999037" id="gradient_2">
      <stop offset="0" stop-color="#DB143B" />
      <stop offset="1" stop-color="#FF9900" />
    </linearGradient>
    <rect width="500" height="123" id="artboard_1" />
    <clipPath id="clip_1">
      <use xlink:href="#artboard_1" clip-rule="evenodd" />
    </clipPath>
  </defs>
  <g id="LogoOrizzontaleColore" clip-path="url(#clip_1)">
    <path d="M60.939 -3.66072e-08C27.2517 0.184035 1.65497e-08 27.5499 3.68123e-08 61.2805L3.68123e-08 61.2805C5.70756e-08 95.0122 27.2506 122.379 60.939 122.562L60.939 122.562L61.6231 122.562C95.3104 122.379 122.562 95.0122 122.562 61.2805L122.562 61.2805C122.562 27.5499 95.3104 0.184035 61.622 -3.70175e-08L61.622 -3.70175e-08L60.939 -3.66072e-08ZM56.5676 18.8558L65.9955 18.8558C71.2017 18.8558 75.4234 23.0775 75.4234 28.2837L75.4234 28.2837L47.1396 28.2837C47.1396 23.0775 51.3603 18.8558 56.5676 18.8558L56.5676 18.8558ZM94.2782 32.9966C99.4845 32.9966 103.706 37.2172 103.706 42.4246L103.706 42.4246L103.706 80.133C103.706 85.3403 99.4845 89.5598 94.2782 89.5598L94.2782 89.5598L94.2782 32.9966ZM32.9978 101.344L32.9978 32.9967L89.5654 32.9967L89.5654 89.5599L51.8536 89.5599C46.8814 94.071 41.9091 98.5798 36.9379 103.091L36.9379 103.091C36.4689 103.516 35.9135 103.706 35.3692 103.706L35.3692 103.706C34.1552 103.706 32.9978 102.757 32.9978 101.344L32.9978 101.344ZM18.8559 80.133L18.8559 42.4246C18.8559 37.2173 23.0754 32.9967 28.2838 32.9967L28.2838 32.9967L28.2838 89.5599C23.0754 89.5599 18.8559 85.3404 18.8559 80.133L18.8559 80.133Z" transform="translate(1.5258789E-05 3.0517578E-05)" id="Fill-4" fill="url(#gradient_1)" fill-rule="evenodd" stroke="none" />
    <path d="M14.1408 3.14207C11.3337 -0.600723 5.89355 -1.07522 2.48224 2.12544L2.48224 2.12544C-0.931283 5.32832 -0.807114 10.7851 2.74943 13.8272L2.74943 13.8272C6.54654 17.0744 10.3448 20.3217 14.1408 23.5689L14.1408 23.5689C17.939 20.3217 21.7361 17.0744 25.5332 13.8272L25.5332 13.8272C29.0898 10.7851 29.2151 5.32832 25.8004 2.12544L25.8004 2.12544C24.276 0.696394 22.3492 0.00016355 20.4324 0.00016355L20.4324 0.00016355C18.0554 0.00016355 15.6962 1.07001 14.1408 3.14207" transform="translate(47.13971 49.494293)" id="Fill-1" fill="url(#gradient_2)" fill-rule="evenodd" stroke="none" />
    <path d="M0 8.61862L0 0L41.4756 0L41.4756 8.61862L25.653 8.61862L25.653 47.1308L15.8902 47.1308L15.8902 8.61862L0 8.61862Z" transform="translate(131.98993 37.57837)" id="Fill-7" fill="#000000" fill-rule="evenodd" stroke="none" />
    <path d="M0 35.8869L0 0.807095L9.22395 0.807095L9.22395 4.64523C10.3459 3.11973 11.704 1.96341 13.2971 1.17738C14.8902 0.39357 16.653 0 18.5831 0C19.48 0.0454545 20.2328 0.124169 20.8381 0.236142C21.4446 0.348115 21.9712 0.538803 22.4213 0.807095L22.4213 8.88692C21.7472 8.57428 21.0067 8.33814 20.1996 8.18071C19.3902 8.02328 18.5599 7.94568 17.7084 7.94568C15.9124 7.94568 14.2616 8.39357 12.7594 9.29157C11.2539 10.1896 10.0765 11.4911 9.22395 13.1962L9.22395 35.8869L0 35.8869Z" transform="translate(175.41772 48.82251)" id="Fill-9" fill="#000000" fill-rule="evenodd" stroke="none" />
    <path d="M0.674072 49.7573L9.89802 49.7573L9.89802 14.6774L0.674072 14.6774L0.674072 49.7573ZM5.25166 10.5033C3.81486 10.5033 2.58093 9.9878 1.54878 8.95454C0.515521 7.9235 4.01789e-09 6.68847 3.15477e-09 5.25166C2.29165e-09 3.81486 0.515521 2.58093 1.54878 1.54878C2.58093 0.51663 3.81486 -2.29165e-09 5.25166 -3.15477e-09C6.68736 -4.01722e-09 7.92239 0.51663 8.95455 1.54878C9.9867 2.58093 10.5033 3.81486 10.5033 5.25166C10.5033 6.68847 9.9867 7.9235 8.95455 8.95454C7.92239 9.9878 6.68736 10.5033 5.25166 10.5033L5.25166 10.5033Z" transform="translate(202.14746 34.95233)" id="Fill-11" fill="#000000" fill-rule="evenodd" stroke="none" />
    <path d="M17.5743 7.87701C15.9124 7.87701 14.3636 8.15861 12.9291 8.71848C11.4911 9.28056 10.2572 10.0987 9.22507 11.1763L9.22507 24.979C10.2118 25.9668 11.4357 26.7528 12.8947 27.336C14.3526 27.9191 15.9124 28.2107 17.5743 28.2107C20.4468 28.2107 22.8692 27.2351 24.8459 25.2817C26.8204 23.3293 27.8082 20.9169 27.8082 18.0444C27.8082 15.1719 26.8082 12.7584 24.8115 10.8072C22.8149 8.85373 20.4025 7.87701 17.5743 7.87701L17.5743 7.87701ZM2.98082e-08 49.6208L2.82378e-10 0.470066L9.09091 0.470066L9.09091 3.36585C10.4812 2.24501 12.0299 1.40244 13.7361 0.840355C15.4412 0.279379 17.214 -1.03408e-08 19.0554 -1.1447e-08C21.5233 -1.29294e-08 23.8459 0.470066 26.0233 1.41353C28.2007 2.35588 30.0976 3.63525 31.714 5.25166C33.3293 6.86696 34.5965 8.77605 35.5177 10.9745C36.4368 13.1741 36.898 15.5299 36.898 18.0443C36.898 20.5576 36.4268 22.9146 35.4834 25.1142C34.541 27.3126 33.2616 29.2206 31.6452 30.8359C30.0299 32.4523 28.1109 33.7217 25.8891 34.6408C23.6674 35.561 21.2993 36.0211 18.786 36.0211C17.0798 36.0211 15.408 35.7849 13.7694 35.3137C12.1308 34.8426 10.6164 34.1585 9.22505 33.2605L9.22505 49.6208L2.98082e-08 49.6208Z" transform="translate(219.2478 49.159637)" id="Fill-13" fill="#000000" fill-rule="evenodd" stroke="none" />
    <path d="M7.20399 36.2239L7.20399 18.786L0 18.786L0 11.0421L7.20399 11.0421L7.20399 2.08758L16.4279 0L16.4279 11.0421L26.3936 11.0421L26.3936 18.786L16.4279 18.786L16.4279 34.3392C16.4279 36 16.7882 37.1674 17.5055 37.8404C18.2228 38.5122 19.48 38.8503 21.2761 38.8503C22.1286 38.8503 22.9357 38.7938 23.7007 38.6818C24.4623 38.5698 25.2927 38.357 26.1918 38.0421L26.1918 45.582C25.2029 45.898 24.0133 46.1552 22.6231 46.357C21.2306 46.5588 20.041 46.6608 19.0543 46.6608C15.1497 46.6608 12.1973 45.7738 10.2007 44.0011C8.20177 42.2284 7.20399 39.6353 7.20399 36.2239" transform="translate(257.6937 38.5878)" id="Fill-14" fill="#000000" fill-rule="evenodd" stroke="none" />
    <path d="M18.7183 28.4124C21.4112 28.4124 23.7006 27.4257 25.5853 25.4501C27.4711 23.4756 28.4134 21.0743 28.4134 18.2461C28.4134 15.3736 27.4711 12.9501 25.5853 10.9745C23.7006 8.9989 21.4112 8.01221 18.7183 8.01221C16.0243 8.01221 13.7361 8.9989 11.8503 10.9745C9.96445 12.9501 9.02209 15.3736 9.02209 18.2461C9.02209 21.0743 9.96445 23.4756 11.8503 25.4501C13.7361 27.4257 16.0243 28.4124 18.7183 28.4124M1.09608e-08 18.2461C9.42369e-09 15.6874 0.482262 13.2971 1.44789 11.0754C2.41242 8.85255 3.73725 6.9235 5.42018 5.28492C7.1031 3.64634 9.0898 2.35588 11.3792 1.41353C13.6685 0.471175 16.1142 -9.68009e-09 18.7184 -1.12445e-08C21.3215 -1.28082e-08 23.7683 0.471175 26.0565 1.41353C28.347 2.35588 30.3326 3.64634 32.0155 5.28492C33.6996 6.9235 35.0222 8.85255 35.9878 11.0754C36.9523 13.2971 37.4357 15.6874 37.4357 18.2461C37.4357 20.8049 36.9523 23.194 35.9878 25.4169C35.0222 27.6386 33.6996 29.5565 32.0155 31.1729C30.3326 32.7882 28.347 34.0687 26.0565 35.0111C23.7683 35.9534 21.3215 36.4257 18.7184 36.4257C16.1142 36.4257 13.6685 35.9534 11.3792 35.0111C9.0898 34.0687 7.1031 32.7882 5.42018 31.1729C3.73725 29.5565 2.41242 27.6386 1.44789 25.4169C0.482262 23.194 1.24979e-08 20.8049 1.09608e-08 18.2461" transform="translate(286.7132 48.95764)" id="Fill-15" fill="#000000" fill-rule="evenodd" stroke="none" />
    <path d="M0 31.4424L4.57871 25.316C6.64191 26.6619 8.59534 27.6619 10.4357 28.3126C12.2749 28.9634 14.1153 29.2882 15.9579 29.2882C18.0211 29.2882 19.6707 28.9512 20.9047 28.2783C22.1397 27.6042 22.7572 26.7073 22.7572 25.5854C22.7572 24.6874 22.4091 23.969 21.714 23.4302C21.0177 22.8914 19.9058 22.51 18.3803 22.2849L11.6475 21.2749C8.19069 20.7372 5.55432 19.6153 3.73614 17.9091C1.91796 16.204 1.00998 13.9368 1.00998 11.1086C1.00998 7.74279 2.33259 5.04878 4.98226 3.02882C7.63082 1.00887 11.1763 0 15.6208 0C18.1785 0 20.6707 0.370288 23.0942 1.11086C25.5177 1.85144 27.8293 2.94013 30.0288 4.37583L25.5854 10.3016C23.6552 9.1796 21.8149 8.33814 20.0643 7.77605C18.3137 7.21508 16.5399 6.93459 14.745 6.93459C13.0843 6.93459 11.7494 7.24945 10.7395 7.87694C9.72838 8.50665 9.22395 9.33703 9.22395 10.3681C9.22395 11.3115 9.59424 12.041 10.3348 12.5565C11.0754 13.0732 12.2982 13.4435 14.0044 13.6674L20.7372 14.6774C24.1474 15.1718 26.7849 16.2938 28.6486 18.0432C30.5111 19.7938 31.4424 22.0166 31.4424 24.7095C31.4424 26.3703 31.0499 27.908 30.265 29.3215C29.4789 30.735 28.4135 31.959 27.0665 32.9911C25.7195 34.0244 24.1031 34.8326 22.2184 35.4146C20.3337 35.9978 18.2905 36.2905 16.092 36.2905C12.9047 36.2905 9.91907 35.8747 7.13636 35.0443C4.35366 34.214 1.9745 33.0144 0 31.4424" transform="translate(326.84235 49.092346)" id="Fill-16" fill="#000000" fill-rule="evenodd" stroke="none" />
    <path d="M0 49.1508L0 2.01885L9.22395 0L9.22395 16.8326C10.571 15.7106 12.0621 14.857 13.7007 14.2738C15.3392 13.6918 17.1231 13.3991 19.0543 13.3991C23.0942 13.3991 26.4146 14.7007 29.0188 17.3027C31.6208 19.9069 32.9235 23.2528 32.9235 27.3359L32.9235 49.1508L23.6996 49.1508L23.6996 28.6818C23.6996 26.4845 23.0366 24.7095 21.714 23.3625C20.3891 22.0166 18.6275 21.3437 16.4279 21.3437C14.9013 21.3437 13.5211 21.6463 12.2871 22.2517C11.0532 22.8581 10.0322 23.7228 9.22395 24.8448L9.22395 49.1508L0 49.1508Z" transform="translate(362.86365 35.558655)" id="Fill-17" fill="#000000" fill-rule="evenodd" stroke="none" />
    <path d="M8.82037 25.3836C8.82037 26.7306 9.40352 27.7971 10.5709 28.582C11.7383 29.3681 13.286 29.7594 15.2173 29.7594C16.7428 29.7594 18.1463 29.5687 19.4246 29.1874C20.7051 28.8071 21.8825 28.2561 22.9601 27.5377L22.9601 22.286C21.837 21.8381 20.6596 21.5122 19.4246 21.3093C18.1896 21.1086 16.9002 21.0067 15.5532 21.0067C13.4434 21.0067 11.7938 21.4002 10.6042 22.1851C9.41461 22.9712 8.82037 24.0366 8.82037 25.3836M12.7927 36.3581C9.02328 36.3581 5.94789 35.3592 3.56984 33.3614C1.18958 31.3659 1.7285e-08 28.7738 1.53696e-08 25.5854C1.3375e-08 22.265 1.27938 19.6608 3.83814 17.7749C6.39579 15.8902 9.92018 14.9468 14.4091 14.9468C15.8448 14.9468 17.2816 15.0588 18.7184 15.2838C20.1552 15.5089 21.5687 15.8448 22.9601 16.2938L22.9601 13.8027C22.9601 11.7816 22.3315 10.2572 21.0754 9.22395C19.8171 8.1918 17.9778 7.67517 15.5532 7.67517C14.0721 7.67517 12.4667 7.91131 10.7395 8.38248C9.01109 8.85366 7.04656 9.58426 4.84811 10.571L1.48226 3.77051C4.21951 2.51441 6.87916 1.57095 9.46009 0.94235C12.041 0.314856 14.5876 -8.76303e-09 17.1031 -1.02742e-08C21.816 -1.31053e-08 25.4845 1.13415 28.1109 3.40022C30.7373 5.66741 32.0499 8.86585 32.0499 12.9945L32.0499 35.7528L22.9601 35.7528L22.9601 33.3282C21.4789 34.3614 19.9191 35.1242 18.2805 35.6164C16.6419 36.1109 14.8126 36.3581 12.7927 36.3581" transform="translate(401.10553 48.957214)" id="Fill-18" fill="#000000" fill-rule="evenodd" stroke="none" />
    <path d="M0 35.8869L0 0.807095L9.22395 0.807095L9.22395 4.64523C10.3459 3.11973 11.704 1.96341 13.2971 1.17738C14.8902 0.39357 16.653 0 18.5831 0C19.48 0.0454545 20.2328 0.124169 20.8381 0.236142C21.4446 0.348115 21.9712 0.538803 22.4213 0.807095L22.4213 8.88692C21.7472 8.57428 21.0067 8.33814 20.1996 8.18071C19.3902 8.02328 18.5599 7.94568 17.7084 7.94568C15.9124 7.94568 14.2616 8.39357 12.7594 9.29157C11.2539 10.1896 10.0765 11.4911 9.22395 13.1962L9.22395 35.8869L0 35.8869Z" transform="translate(440.1571 48.82251)" id="Fill-19" fill="#000000" fill-rule="evenodd" stroke="none" />
    <path d="M17.8427 7.60754C15.7329 7.60754 13.9136 8.24723 12.3892 9.5255C10.8626 10.806 9.8072 12.5233 9.22516 14.6774L26.3937 14.6774C25.8105 12.6131 24.744 10.918 23.1952 9.59424C21.6476 8.27052 19.8615 7.60754 17.8427 7.60754L17.8427 7.60754ZM33.0599 31.3082C30.9047 33.0588 28.6929 34.337 26.4268 35.1452C24.1596 35.9523 21.6353 36.3581 18.8525 36.3581C16.2029 36.3581 13.7239 35.8858 11.4124 34.9435C9.09978 34.0011 7.1031 32.7206 5.42018 31.1053C3.73614 29.4889 2.41242 27.571 1.44789 25.3492C0.482262 23.1264 1.24573e-08 20.7372 1.09202e-08 18.1785C9.41037e-09 15.6652 0.45898 13.2971 1.38027 11.0754C2.29933 8.85255 3.56874 6.9235 5.18403 5.28381C6.80044 3.64745 8.71951 2.35588 10.9401 1.41353C13.163 0.471175 15.5299 -9.32912e-09 18.0443 -1.08396e-08C20.5122 -1.23221e-08 22.8126 0.482262 24.9457 1.44678C27.0776 2.41242 28.918 3.72506 30.4667 5.38581C32.0155 7.04656 33.2273 9.03215 34.1031 11.3448C34.9778 13.6563 35.4157 16.1585 35.4157 18.8526L35.4157 21.2749L9.29157 21.2749C9.92018 23.4756 11.1308 25.2483 12.9268 26.5942C14.7228 27.9412 16.8326 28.6142 19.2561 28.6142C20.7816 28.6142 22.2184 28.3692 23.5654 27.8736C24.9124 27.3803 26.0565 26.6851 27 25.786L33.0599 31.3082Z" transform="translate(464.26135 49.025208)" id="Fill-20" fill="#000000" fill-rule="evenodd" stroke="none" />
    <path d="M9.42794 0L18.8559 0C24.0621 0 28.2838 4.22173 28.2838 9.42794L28.2838 9.42794L0 9.42794C0 4.22173 4.22062 0 9.42794 0L9.42794 0Z" transform="translate(47.13968 18.855865)" id="Path" fill="none" fill-rule="evenodd" stroke="none" />
    <path d="M0 0C5.20621 0 9.42794 4.22062 9.42794 9.42794L9.42794 9.42794L9.42794 47.1364C9.42794 52.3437 5.20621 56.5632 0 56.5632L0 56.5632L0 0Z" transform="translate(94.27826 32.996674)" id="Path" fill="none" fill-rule="evenodd" stroke="none" />
    <path d="M0 68.347L0 0L56.5676 0L56.5676 56.5632L18.8559 56.5632C13.8836 61.0743 8.91131 65.5831 3.94013 70.0942L3.94013 70.0942C3.47118 70.5188 2.91574 70.7095 2.3714 70.7095L2.3714 70.7095C1.15743 70.7095 0 69.7605 0 68.347L0 68.347Z" transform="translate(32.997787 32.996674)" id="Path" fill="none" fill-rule="evenodd" stroke="none" />
    <path d="M0 47.1364L0 9.42794C0 4.22062 4.21951 0 9.42794 0L9.42794 0L9.42794 56.5632C4.21951 56.5632 0 52.3437 0 47.1364L0 47.1364Z" transform="translate(18.85588 32.996674)" id="Path" fill="none" fill-rule="evenodd" stroke="none" />
  </g>
</svg>