<svg width="604" height="804" viewBox="0 0 604 804" fill="none" xmlns="http://www.w3.org/2000/svg">
<circle cx="302" cy="744" r="60" fill="none"/>
<path fill-rule="evenodd" clip-rule="evenodd" d="M402.667 251.667V176.167C402.667 120.548 357.618 75.5 302 75.5C246.382 75.5 201.334 120.548 201.334 176.167V251.667C201.334 265.509 212.658 276.833 226.5 276.833H377.5C391.342 276.833 402.667 265.509 402.667 251.667ZM302 302C402.164 302 490.498 367.685 518.937 463.822C528.752 496.035 504.592 528.5 470.868 528.5H133.132C99.4085 528.5 75.2485 496.035 85.0635 463.822C113.502 367.685 201.837 302 302 302ZM364.162 365.42C346.042 348.307 317.1 351.075 302 370.957C286.9 351.075 257.958 348.307 239.838 365.42C221.467 382.533 222.222 411.727 241.097 428.085C261.482 445.199 281.615 462.563 302 479.929C322.385 462.563 342.518 445.199 362.904 428.085C381.778 411.727 382.534 382.533 364.162 365.42Z" fill="white"/>
</svg>
