<?xml version="1.0" encoding="utf-8"?>
<svg width="719px" height="719px" viewbox="0 0 719 719" version="1.1" xmlns:xlink="http://www.w3.org/1999/xlink" xmlns="http://www.w3.org/2000/svg">
  <g id="IconaMistery-trip" transform="translate(0.5 0.5)">
    <path d="M0 718L718 718L718 0L0 0L0 718Z" id="Stroke-3" fill="none" fill-rule="evenodd" stroke="none" />
    <path d="M538.5 134.625C488.838 134.625 448.75 174.713 448.75 224.375C448.75 274.037 488.838 314.125 538.5 314.125L538.5 388.917C538.5 421.825 511.575 448.75 478.667 448.75L59.8333 448.75C26.925 448.75 0 421.825 0 388.917L0 314.125C49.6617 314.125 89.75 274.037 89.75 224.375C89.75 174.713 49.6617 134.625 0 134.625L0 89.75L0 59.8333C0 26.925 26.925 0 59.8333 0L478.667 0C511.575 0 538.5 26.925 538.5 59.8333L538.5 89.75L538.5 134.625ZM291.688 266.857C371.565 249.206 401.482 151.378 344.939 92.1434C288.696 33.2076 189.373 58.6368 168.132 137.318C164.841 149.284 172.021 161.849 183.988 164.841C195.954 168.132 208.22 160.952 211.511 148.985C224.375 101.118 286.602 88.8526 316.818 128.043C347.034 167.533 318.912 224.375 269.25 224.375L246.813 224.375L246.813 291.688C246.813 303.953 256.984 314.125 269.25 314.125C281.516 314.125 291.688 303.953 291.688 291.688L291.688 266.857ZM291.688 366.479C291.688 354.213 281.516 344.042 269.25 344.042C256.984 344.042 246.813 354.213 246.813 366.479C246.813 378.745 256.984 388.917 269.25 388.917C281.516 388.917 291.688 378.745 291.688 366.479L291.688 366.479Z" transform="translate(89.75 134.625)" id="Fill-1" fill="#000000" fill-rule="evenodd" stroke="none" />
  </g>
</svg>