<?xml version="1.0" encoding="utf-8"?>
<svg width="1054px" height="1054px" viewbox="0 0 1054 1054" version="1.1" xmlns:xlink="http://www.w3.org/1999/xlink" xmlns="http://www.w3.org/2000/svg">
  <defs>
    <linearGradient x1="0" y1="0.49999988" x2="1.0000002" y2="0.49999988" id="gradient_1">
      <stop offset="0" stop-color="#DB143B" />
      <stop offset="1" stop-color="#FF9900" />
    </linearGradient>
    <linearGradient x1="-7.981852E-06" y1="0.49999037" x2="0.9999938" y2="0.49999037" id="gradient_2">
      <stop offset="0" stop-color="#DB143B" />
      <stop offset="1" stop-color="#FF9900" />
    </linearGradient>
    <path d="M523.836 0C234.257 1.58198 0 236.821 0 526.771L0 526.771C0 816.731 234.247 1051.98 523.836 1053.55L523.836 1053.55L529.716 1053.55C819.294 1051.98 1053.55 816.731 1053.55 526.771L1053.55 526.771C1053.55 236.821 819.294 1.58198 529.706 0L529.706 0L523.836 0ZM486.259 162.086L567.302 162.086C612.055 162.086 648.345 198.376 648.345 243.129L648.345 243.129L405.216 243.129C405.216 198.376 441.496 162.086 486.259 162.086L486.259 162.086ZM810.422 283.641C855.175 283.641 891.465 319.922 891.465 364.685L891.465 364.685L891.465 688.828C891.465 733.591 855.175 769.862 810.422 769.862L810.422 769.862L810.422 283.641ZM283.651 871.156L283.651 283.641L769.91 283.641L769.91 769.862L445.737 769.862C402.995 808.64 360.253 847.398 317.521 886.176L317.521 886.176C313.489 889.826 308.715 891.465 304.036 891.465L304.036 891.465C293.6 891.465 283.651 883.307 283.651 871.156L283.651 871.156ZM162.086 688.828L162.086 364.685C162.086 319.922 198.357 283.641 243.129 283.641L243.129 283.641L243.129 769.862C198.357 769.862 162.086 733.591 162.086 688.828L162.086 688.828Z" id="path_1" />
    <path d="M121.555 27.0094C97.425 -5.16385 50.6613 -9.2427 21.3375 18.2704L21.3375 18.2704C-8.00536 45.8026 -6.938 92.7093 23.6342 118.86L23.6342 118.86C56.2745 146.773 88.9243 174.686 121.555 202.6L121.555 202.6C154.205 174.686 186.845 146.773 219.485 118.86L219.485 118.86C250.057 92.7093 251.134 45.8026 221.782 18.2704L221.782 18.2704C208.678 5.98625 192.115 0.00140589 175.638 0.00140589L175.638 0.00140589C155.205 0.00140589 134.926 9.19786 121.555 27.0094" transform="translate(405.21576 425.45535)" id="path_2" />
    <clipPath id="mask_1">
      <use xlink:href="#path_1" />
    </clipPath>
    <clipPath id="mask_2">
      <use xlink:href="#path_2" />
    </clipPath>
  </defs>
  <g id="Group-7">
    <path d="M523.836 0C234.257 1.58198 0 236.821 0 526.771L0 526.771C0 816.731 234.247 1051.98 523.836 1053.55L523.836 1053.55L529.716 1053.55C819.294 1051.98 1053.55 816.731 1053.55 526.771L1053.55 526.771C1053.55 236.821 819.294 1.58198 529.706 0L529.706 0L523.836 0ZM486.259 162.086L567.302 162.086C612.055 162.086 648.345 198.376 648.345 243.129L648.345 243.129L405.216 243.129C405.216 198.376 441.496 162.086 486.259 162.086L486.259 162.086ZM810.422 283.641C855.175 283.641 891.465 319.922 891.465 364.685L891.465 364.685L891.465 688.828C891.465 733.591 855.175 769.862 810.422 769.862L810.422 769.862L810.422 283.641ZM283.651 871.156L283.651 283.641L769.91 283.641L769.91 769.862L445.737 769.862C402.995 808.64 360.253 847.398 317.521 886.176L317.521 886.176C313.489 889.826 308.715 891.465 304.036 891.465L304.036 891.465C293.6 891.465 283.651 883.307 283.651 871.156L283.651 871.156ZM162.086 688.828L162.086 364.685C162.086 319.922 198.357 283.641 243.129 283.641L243.129 283.641L243.129 769.862C198.357 769.862 162.086 733.591 162.086 688.828L162.086 688.828Z" id="Clip-5" fill="none" fill-rule="evenodd" stroke="none" />
    <g clip-path="url(#mask_1)">
      <path d="M523.836 0C234.257 1.58198 0 236.821 0 526.771L0 526.771C0 816.731 234.247 1051.98 523.836 1053.55L523.836 1053.55L529.716 1053.55C819.294 1051.98 1053.55 816.731 1053.55 526.771L1053.55 526.771C1053.55 236.821 819.294 1.58198 529.706 0L529.706 0L523.836 0ZM486.259 162.086L567.302 162.086C612.055 162.086 648.345 198.376 648.345 243.129L648.345 243.129L405.216 243.129C405.216 198.376 441.496 162.086 486.259 162.086L486.259 162.086ZM810.422 283.641C855.175 283.641 891.465 319.922 891.465 364.685L891.465 364.685L891.465 688.828C891.465 733.591 855.175 769.862 810.422 769.862L810.422 769.862L810.422 283.641ZM283.651 871.156L283.651 283.641L769.91 283.641L769.91 769.862L445.737 769.862C402.995 808.64 360.253 847.398 317.521 886.176L317.521 886.176C313.489 889.826 308.715 891.465 304.036 891.465L304.036 891.465C293.6 891.465 283.651 883.307 283.651 871.156L283.651 871.156ZM162.086 688.828L162.086 364.685C162.086 319.922 198.357 283.641 243.129 283.641L243.129 283.641L243.129 769.862C198.357 769.862 162.086 733.591 162.086 688.828L162.086 688.828Z" id="Fill-4" fill="url(#gradient_1)" fill-rule="evenodd" stroke="none" />
    </g>
    <path d="M121.555 27.0094C97.425 -5.16385 50.6613 -9.2427 21.3375 18.2704L21.3375 18.2704C-8.00536 45.8026 -6.938 92.7093 23.6342 118.86L23.6342 118.86C56.2745 146.773 88.9243 174.686 121.555 202.6L121.555 202.6C154.205 174.686 186.845 146.773 219.485 118.86L219.485 118.86C250.057 92.7093 251.134 45.8026 221.782 18.2704L221.782 18.2704C208.678 5.98625 192.115 0.00140589 175.638 0.00140589L175.638 0.00140589C155.205 0.00140589 134.926 9.19786 121.555 27.0094" transform="translate(405.21576 425.45535)" id="Clip-2" fill="none" fill-rule="evenodd" stroke="none" />
    <path d="M121.555 27.0094C97.425 -5.16385 50.6613 -9.2427 21.3375 18.2704L21.3375 18.2704C-8.00536 45.8026 -6.938 92.7093 23.6342 118.86L23.6342 118.86C56.2745 146.773 88.9243 174.686 121.555 202.6L121.555 202.6C154.205 174.686 186.845 146.773 219.485 118.86L219.485 118.86C250.057 92.7093 251.134 45.8026 221.782 18.2704L221.782 18.2704C208.678 5.98625 192.115 0.00140589 175.638 0.00140589L175.638 0.00140589C155.205 0.00140589 134.926 9.19786 121.555 27.0094" transform="translate(405.21576 425.45535)" id="Fill-1" fill="url(#gradient_2)" fill-rule="evenodd" stroke="none" />
  </g>
</svg>