<?xml version="1.0" encoding="utf-8"?>
<svg width="657px" height="657px" viewbox="0 0 657 657" version="1.1" xmlns:xlink="http://www.w3.org/1999/xlink" xmlns="http://www.w3.org/2000/svg">
  <g id="Group-5" transform="translate(0.5 0.5)">
    <path d="M437.333 382.667L437.333 437.333L54.6667 437.333L54.6667 54.6667L437.333 54.6667L437.333 109.333C437.333 116.987 440.34 123.547 445.26 128.74C450.453 133.66 457.013 136.667 464.667 136.667C479.7 136.667 492 124.367 492 109.333L492 54.6667C492 24.6 467.4 0 437.333 0L54.6667 0C24.6 0 0 24.6 0 54.6667L0 437.333C0 467.4 24.6 492 54.6667 492L437.333 492C467.4 492 492 467.4 492 437.333L492 382.667C492 367.633 479.7 355.333 464.667 355.333C457.013 355.333 450.453 358.34 445.26 363.26C440.34 368.453 437.333 375.013 437.333 382.667ZM492 246L410 164L376.107 130.107C365.447 119.447 347.953 119.447 337.293 130.107C326.633 140.767 326.633 157.987 337.293 168.647L387.313 218.667L136.667 218.667C121.633 218.667 109.333 230.967 109.333 246C109.333 261.033 121.633 273.333 136.667 273.333L387.313 273.333L337.293 323.353C326.633 334.013 326.633 351.233 337.293 361.893C347.953 372.553 365.447 372.553 376.107 361.893L410 328L492 246Z" transform="translate(82 82)" id="Fill-8" fill="#000000" fill-rule="evenodd" stroke="none" />
    <path d="M0 656L656 656L656 0L0 0L0 656Z" id="Stroke-6" fill="none" fill-rule="evenodd" stroke="none" />
  </g>
</svg>