<?xml version="1.0" encoding="utf-8"?>
<svg width="705px" height="705px" viewbox="0 0 705 705" version="1.1" xmlns:xlink="http://www.w3.org/1999/xlink" xmlns="http://www.w3.org/2000/svg">
  <g id="IconeViaggioCultura" transform="translate(0.5 0.5)">
    <path d="M0 703L703 703L703 0L0 0L0 703Z" id="Stroke-6" fill="none" fill-rule="evenodd" stroke="none" />
    <g id="Group-5" transform="translate(87.875 80.552086)">
      <path d="M238.104 249.006C246.305 228.209 262.416 211.513 282.334 202.139C282.627 202.139 282.627 201.846 282.627 201.553C290.243 145.899 283.213 88.7805 261.83 36.6413C248.649 3.54173 209.105 -9.93243 178.349 7.93548C128.553 36.6413 79.0499 65.3471 29.254 94.053C-1.50225 111.628 -9.411 152.636 12.2648 180.756C63.8182 246.663 138.805 290.014 221.407 301.731C225.508 283.57 231.074 266.288 238.104 249.006ZM196.51 65.0545C213.499 55.3883 227.852 81.4579 210.863 90.5383C206.762 92.8816 202.954 95.2249 198.853 97.5683C182.157 107.82 166.925 82.0437 183.914 72.3774C188.015 70.0341 192.409 67.3979 196.51 65.0545ZM82.272 130.961C99.2612 121.295 113.907 147.364 96.6249 156.445C92.5241 158.788 88.7162 161.131 84.6153 163.475C68.212 173.727 52.6874 147.95 69.6766 138.284C73.7774 135.94 78.1712 133.304 82.272 130.961ZM257.143 199.21C223.165 218.835 189.479 238.168 155.501 257.793C139.391 229.673 149.057 193.937 176.884 177.827C205.004 161.717 240.74 171.09 257.143 199.21ZM272.366 518.788C233.994 437.357 231.357 343.653 265.336 259.85C278.517 227.043 318.09 213.276 348.817 231.144C398.642 259.85 448.116 288.555 497.911 317.261C528.668 335.129 536.606 375.845 514.901 403.965C459.247 475.143 376.673 519.667 287.011 527.283C280.86 527.868 275.002 524.353 272.366 518.788ZM328.313 320.777C345.009 331.029 360.241 305.545 343.252 295.586C339.151 293.243 334.757 290.899 330.656 288.263C313.667 278.597 299.314 304.666 316.303 314.04C320.433 316.383 324.241 318.433 328.313 320.777ZM442.58 386.683C458.954 396.935 474.478 371.451 457.489 361.492C453.418 359.149 448.994 356.805 444.923 354.169C427.934 344.503 413.288 370.573 430.541 379.946C434.642 382.289 438.449 384.34 442.58 386.683ZM400.986 430.327C384.553 458.447 348.818 468.142 320.991 451.71C292.871 435.599 283.204 399.863 299.315 371.743C333.293 391.369 366.978 410.701 400.986 430.327Z" transform="translate(0.040218346 7.290736)" id="Fill-1" fill="#000000" fill-rule="evenodd" stroke="none" />
    </g>
  </g>
</svg>