<svg width="804" height="804" id="like-perc" viewBox="0 0 804 804" fill="none" xmlns="http://www.w3.org/2000/svg">
    <path class="outer" id="esterno-likeperc" fill-rule="evenodd" clip-rule="evenodd" d="M368.542 667.659C234.708 650.595 134.333 536.837 134.333 401.999C134.333 267.162 234.708 153.405 368.542 136.341V102.882C215.972 119.946 100.875 248.76 100.875 401.999C100.875 555.239 215.972 684.053 368.542 701.117V667.659ZM703.125 402.003C703.125 248.763 588.028 119.949 435.458 102.885V136.344C569.292 153.408 669.667 267.165 669.667 402.003C669.667 536.84 569.292 650.598 435.458 667.662V701.12C588.028 684.056 703.125 555.242 703.125 402.003Z" fill="white" stroke="black" stroke-width="5"/>
    <path id="Fill-likeperc" d="M575.033 256.811C582.989 249.253 582.989 236.525 575.033 228.967C567.475 221.011 554.747 221.011 547.189 228.967L228.967 547.189C221.011 554.747 221.011 567.475 228.967 575.033C236.525 582.989 249.253 582.989 256.811 575.033L575.033 256.811ZM581 501.445C581 457.689 545.2 421.889 501.445 421.889C457.689 421.889 421.889 457.689 421.889 501.445C421.889 545.2 457.689 581 501.445 581C545.2 581 581 545.2 581 501.445ZM382.111 302.555C382.111 258.8 346.311 223 302.555 223C258.8 223 223 258.8 223 302.555C223 346.311 258.8 382.111 302.555 382.111C346.311 382.111 382.111 346.311 382.111 302.555ZM342.333 302.555C342.333 280.678 324.433 262.778 302.555 262.778C280.678 262.778 262.778 280.678 262.778 302.555C262.778 324.433 280.678 342.333 302.555 342.333C324.433 342.333 342.333 324.433 342.333 302.555ZM541.222 501.445C541.222 479.567 523.322 461.667 501.445 461.667C479.567 461.667 461.667 479.567 461.667 501.445C461.667 523.322 479.567 541.222 501.445 541.222C523.322 541.222 541.222 523.322 541.222 501.445Z" fill="white" stroke="black" stroke-width="5" />
</svg>
