<?xml version="1.0" encoding="utf-8"?>
<svg width="700px" height="700px" viewbox="0 0 700 700" version="1.1" xmlns:xlink="http://www.w3.org/1999/xlink" xmlns="http://www.w3.org/2000/svg">
  <g id="IconeViaggioCrociera" transform="translate(0.5 0.5)">
    <path d="M0 699L699 699L699 0L0 0L0 699Z" id="Stroke-10" fill="none" fill-rule="evenodd" stroke="none" />
    <path d="M320.433 0L203.933 0C187.914 0 174.808 13.1062 174.808 29.125L349.558 29.125C349.558 13.1062 336.451 0 320.433 0ZM466.058 87.375L466.058 159.896L320.433 105.141C307.909 100.481 295.094 95.8212 282.57 91.1612C268.299 85.6275 256.067 85.6275 241.795 91.1612C229.271 95.8212 216.457 100.481 203.933 105.141L58.3078 159.896L58.3078 87.375C58.3078 71.3562 71.414 58.25 87.4328 58.25L436.933 58.25C452.951 58.25 466.058 71.3562 466.058 87.375ZM505.379 205.626L272.379 118.251C265.098 115.63 259.273 115.63 251.992 118.251L18.992 205.626C3.847 211.451 -3.7255 228.052 1.80825 243.197L69.6695 423.481C95.5907 491.925 196.654 473.285 196.654 400.472C196.654 436.587 226.071 466.003 262.186 466.003C298.301 466.003 327.717 436.587 327.717 400.472C327.717 473.285 428.781 491.925 454.702 423.481L522.563 243.197C528.097 228.052 520.524 211.451 505.379 205.626ZM174.81 233.003C164.617 233.003 160.248 237.371 160.248 247.565L160.248 276.69C160.248 286.884 164.617 291.253 174.81 291.253C185.004 291.253 189.373 286.884 189.373 276.69L189.373 247.565C189.373 237.371 185.004 233.003 174.81 233.003ZM349.56 233.003C359.754 233.003 364.123 237.371 364.123 247.565L364.123 276.69C364.123 286.884 359.754 291.253 349.56 291.253C339.367 291.253 334.998 286.884 334.998 276.69L334.998 247.565C334.998 237.371 339.367 233.003 349.56 233.003ZM524.308 495.114C497.513 495.114 477.999 487.279 458.776 468.901C422.079 503.851 364.411 503.851 327.714 468.901C291.016 503.851 233.349 503.851 196.651 468.901C159.954 503.851 102.287 503.851 65.589 468.901C46.3665 487.279 26.8528 495.114 0.0577736 495.114L0.0577736 524.239C24.5228 524.239 44.9103 518.414 65.589 505.628C105.782 530.355 156.459 530.355 196.651 505.628C236.844 530.355 287.521 530.355 327.714 505.628C367.906 530.355 418.584 530.355 458.776 505.628C479.455 518.414 499.843 524.239 524.308 524.239L524.308 495.114Z" transform="translate(87.31723 87.375)" id="Fill-5" fill="#000000" fill-rule="evenodd" stroke="none" />
  </g>
</svg>