<?xml version="1.0" encoding="utf-8"?>
<svg width="1458px" height="253px" viewbox="0 0 1458 253" version="1.1" xmlns:xlink="http://www.w3.org/1999/xlink" xmlns="http://www.w3.org/2000/svg">
  <path d="M0 34.1622L0 0L164.4 0L164.4 34.1622L101.683 34.1622L101.683 186.816L62.9853 186.816L62.9853 34.1622L0 34.1622Z" transform="matrix(0.9999999 0 0 0.9999999 0 10.408813)" id="Fill-7" fill="#000000" fill-rule="evenodd" stroke="none" />
  <path d="M0 142.247L0 3.19914L36.5616 3.19914L36.5616 18.4126C41.0088 12.3659 46.3919 7.78252 52.7067 4.66688C59.0215 1.56002 66.0086 0 73.6593 0C77.2144 0.180171 80.1982 0.492175 82.5976 0.936012C85.0013 1.37985 87.0887 2.13569 88.8728 3.19914L88.8728 35.2257C86.201 33.9865 83.2655 33.0505 80.0664 32.4264C76.8585 31.8024 73.567 31.4948 70.1921 31.4948C63.0732 31.4948 56.5299 33.2702 50.5754 36.8297C44.6078 40.3891 39.9409 45.5482 36.5616 52.3068L36.5616 142.247L0 142.247Z" transform="matrix(0.9999999 0 0 0.9999999 172.13751 54.978027)" id="Fill-8" fill="#000000" fill-rule="evenodd" stroke="none" />
  <path d="M2.67186 197.226L39.2335 197.226L39.2335 58.1777L2.67186 58.1777L2.67186 197.226ZM20.8164 41.6328C15.1212 41.6328 10.2302 39.5894 6.13901 35.4938C2.04341 31.4069 0 26.5116 0 20.8164C0 15.1212 2.04341 10.2302 6.13901 6.13901C10.2302 2.0478 15.1212 0 20.8164 0C26.5072 0 31.4025 2.0478 35.4938 6.13901C39.585 10.2302 41.6328 15.1212 41.6328 20.8164C41.6328 26.5116 39.585 31.4069 35.4938 35.4938C31.4025 39.5894 26.5072 41.6328 20.8164 41.6328L20.8164 41.6328Z" transform="matrix(0.9999999 0 0 0.9999999 278.0871 0)" id="Fill-9" fill="#000000" fill-rule="evenodd" stroke="none" />
  <path d="M69.6604 31.2224C63.0732 31.2224 56.9342 32.3386 51.2478 34.5578C45.5482 36.7858 40.6572 40.0289 36.566 44.3002L36.566 99.0108C40.4771 102.926 45.3285 106.042 51.1116 108.353C56.8903 110.665 63.0732 111.821 69.6604 111.821C81.0464 111.821 90.6482 107.953 98.4835 100.21C106.31 92.4719 110.225 82.9096 110.225 71.5237C110.225 60.1377 106.262 50.5711 98.3472 42.8369C90.4329 35.0939 80.8706 31.2224 69.6604 31.2224L69.6604 31.2224ZM0 196.686L0 1.86324L36.0343 1.86324L36.0343 13.3415C41.5449 8.89871 47.6839 5.55895 54.4469 3.33097C61.2055 1.10739 68.2322 0 75.5313 0C85.3133 0 94.5196 1.86324 103.15 5.60289C111.781 9.33815 119.3 14.4093 125.707 20.8164C132.11 27.2191 137.132 34.7863 140.784 43.5004C144.427 52.2189 146.255 61.5571 146.255 71.5236C146.255 81.4858 144.388 90.8283 140.648 99.5469C136.913 108.261 131.841 115.824 125.434 122.226C119.032 128.634 111.425 133.665 102.619 137.308C93.8121 140.956 84.4257 142.779 74.4635 142.779C67.7005 142.779 61.0737 141.843 54.5787 139.976C48.0838 138.108 42.081 135.397 36.566 131.837L36.566 196.686L0 196.686Z" transform="matrix(0.9999999 0 0 0.9999999 345.86987 56.314453)" id="Fill-10" fill="#000000" fill-rule="evenodd" stroke="none" />
  <path d="M28.555 143.583L28.555 74.4635L0 74.4635L0 43.7685L28.555 43.7685L28.555 8.2747L65.1166 0L65.1166 43.7685L104.618 43.7685L104.618 74.4635L65.1166 74.4635L65.1166 136.113C65.1166 142.696 66.5447 147.323 69.3879 149.99C72.2311 152.653 77.2144 153.994 84.3334 153.994C87.7127 153.994 90.9118 153.77 93.944 153.326C96.963 152.882 100.254 152.038 103.818 150.79L103.818 180.677C99.8984 181.929 95.1832 182.949 89.6726 183.748C84.1532 184.548 79.438 184.952 75.5269 184.952C60.0498 184.952 48.3474 181.437 40.4331 174.41C32.5099 167.384 28.555 157.105 28.555 143.583" transform="matrix(0.9999999 0 0 0.9999999 498.2582 14.410339)" id="Fill-11" fill="#000000" fill-rule="evenodd" stroke="none" />
  <path d="M74.1955 112.62C84.8695 112.62 93.944 108.709 101.415 100.878C108.889 93.052 112.625 83.5336 112.625 72.3235C112.625 60.9375 108.889 51.3313 101.415 43.5004C93.944 35.6696 84.8695 31.7585 74.1955 31.7585C63.517 31.7585 54.4469 35.6696 46.972 43.5004C39.4971 51.3313 35.7618 60.9375 35.7618 72.3235C35.7618 83.5336 39.4971 93.052 46.972 100.878C54.4469 108.709 63.517 112.62 74.1955 112.62M0 72.3234C0 62.1811 1.91157 52.7067 5.73912 43.9003C9.56226 35.0895 14.8136 27.4432 21.4843 20.9482C28.1551 14.4533 36.0299 9.33815 45.1044 5.60289C54.1788 1.86763 63.8729 0 74.1954 0C84.5135 0 94.212 1.86763 103.282 5.60289C112.361 9.33815 120.231 14.4533 126.902 20.9482C133.577 27.4432 138.82 35.0895 142.647 43.9003C146.471 52.7067 148.386 62.1811 148.386 72.3234C148.386 82.4657 146.471 91.9357 142.647 100.747C138.82 109.553 133.577 117.155 126.902 123.562C120.231 129.965 112.361 135.041 103.282 138.776C94.212 142.511 84.5135 144.383 74.1954 144.383C63.8729 144.383 54.1788 142.511 45.1044 138.776C36.0299 135.041 28.1551 129.965 21.4843 123.562C14.8136 117.155 9.56226 109.553 5.73912 100.747C1.91157 91.9357 0 82.4657 0 72.3234" transform="matrix(0.9999999 0 0 0.9999999 613.28503 55.5141)" id="Fill-12" fill="#000000" fill-rule="evenodd" stroke="none" />
  <path d="M0 124.63L18.149 100.347C26.327 105.681 34.07 109.645 41.3647 112.225C48.6551 114.804 55.9498 116.092 63.2533 116.092C71.4314 116.092 77.9702 114.756 82.8612 112.089C87.7566 109.417 90.2043 105.862 90.2043 101.415C90.2043 97.855 88.8245 95.0074 86.0692 92.8717C83.3095 90.7361 78.9019 89.2244 72.8551 88.3323L46.1678 84.329C32.466 82.1977 22.0161 77.7505 14.8092 70.9875C7.60235 64.2289 4.00332 55.2423 4.00332 44.0321C4.00332 30.6907 9.24587 20.0122 19.7485 12.0056C30.2468 3.99893 44.3002 0 61.9174 0C72.0554 0 81.934 1.46774 91.5402 4.40321C101.146 7.33869 110.309 11.654 119.027 17.3448L101.414 40.833C93.7638 36.3858 86.4691 33.0505 79.5303 30.8225C72.5915 28.5989 65.5604 27.4871 58.4458 27.4871C51.863 27.4871 46.5721 28.7351 42.5688 31.2224C38.5611 33.7184 36.5616 37.0098 36.5616 41.0966C36.5616 44.8363 38.0293 47.7278 40.9648 49.7712C43.9003 51.819 48.7473 53.2868 55.5104 54.1745L82.1977 58.1778C95.7149 60.1377 106.169 64.5848 113.556 71.5192C120.939 78.458 124.63 87.2689 124.63 97.9429C124.63 104.526 123.075 110.621 119.963 116.224C116.848 121.827 112.625 126.678 107.285 130.769C101.946 134.865 95.5392 138.068 88.0686 140.375C80.5981 142.687 72.4992 143.847 63.7851 143.847C51.1511 143.847 39.3169 142.199 28.2869 138.908C17.2569 135.616 7.82647 130.862 0 124.63" transform="matrix(0.9999999 0 0 0.9999999 772.34863 56.047363)" id="Fill-13" fill="#000000" fill-rule="evenodd" stroke="none" />
  <path d="M0 194.822L0 8.00224L36.5616 0L36.5616 66.7205C41.9008 62.2734 47.8113 58.8897 54.3063 56.5782C60.8012 54.2711 67.8719 53.111 75.527 53.111C91.5402 53.111 104.702 58.2701 115.024 68.5838C125.338 78.9063 130.501 92.1686 130.501 108.353L130.501 194.822L93.9396 194.822L93.9396 113.688C93.9396 104.978 91.3117 97.9429 86.0692 92.6037C80.8178 87.2688 73.8351 84.6014 65.1166 84.6014C59.0654 84.6014 53.5944 85.8011 48.7034 88.2005C43.8124 90.6042 39.7651 94.0319 36.5616 98.479L36.5616 194.822L0 194.822Z" transform="matrix(0.9999999 0 0 0.9999999 915.1295 2.402954)" id="Fill-14" fill="#000000" fill-rule="evenodd" stroke="none" />
  <path d="M34.9619 100.615C34.9619 105.954 37.2734 110.181 41.9007 113.293C46.528 116.408 52.6627 117.96 60.3177 117.96C66.3645 117.96 71.9278 117.204 76.9946 115.692C82.0701 114.185 86.737 112.001 91.0084 109.153L91.0084 88.3367C86.5568 86.5614 81.89 85.2694 76.9946 84.4652C72.0992 83.6699 66.9885 83.2656 61.6492 83.2656C53.2867 83.2656 46.7478 84.8256 42.0325 87.9368C37.3173 91.0525 34.9619 95.2755 34.9619 100.615M50.7073 144.115C35.7662 144.115 23.5761 140.156 14.15 132.237C4.71522 124.327 0 114.053 0 101.414C0 88.2532 5.07116 77.9307 15.2135 70.4558C25.3514 62.9853 39.3213 59.2456 57.1143 59.2456C62.8051 59.2456 68.5003 59.6895 74.1954 60.5815C79.8906 61.4736 85.4935 62.8051 91.0085 64.5848L91.0085 54.7106C91.0085 46.6995 88.5169 40.6572 83.538 36.5616C78.5503 32.4704 71.26 30.4226 61.6494 30.4226C55.7784 30.4226 49.4153 31.3586 42.5688 33.2262C35.7179 35.0939 27.931 37.9898 19.2168 41.9008L5.87534 14.9454C16.7252 9.96655 27.2674 6.2269 37.4976 3.73526C47.7278 1.24802 57.8218 0 67.7928 0C86.4735 0 101.015 4.49549 111.425 13.4777C121.835 22.4643 127.038 35.1422 127.038 51.507L127.038 141.716L91.0085 141.716L91.0085 132.105C85.1376 136.201 78.9546 139.224 72.4596 141.175C65.9647 143.135 58.7139 144.115 50.7073 144.115" transform="matrix(0.9999999 0 0 0.9999999 1066.7109 55.512268)" id="Fill-15" fill="#000000" fill-rule="evenodd" stroke="none" />
  <path d="M0 142.247L0 3.19914L36.5616 3.19914L36.5616 18.4126C41.0088 12.3659 46.3919 7.78252 52.7067 4.66688C59.0215 1.56002 66.0086 0 73.6593 0C77.2144 0.180171 80.1982 0.492175 82.5976 0.936012C85.0013 1.37985 87.0887 2.13569 88.8728 3.19914L88.8728 35.2257C86.201 33.9865 83.2655 33.0505 80.0664 32.4264C76.8585 31.8024 73.567 31.4948 70.1921 31.4948C63.0732 31.4948 56.5299 33.2702 50.5754 36.8297C44.6078 40.3891 39.9409 45.5482 36.5616 52.3068L36.5616 142.247L0 142.247Z" transform="matrix(0.9999999 0 0 0.9999999 1221.5032 54.978027)" id="Fill-16" fill="#000000" fill-rule="evenodd" stroke="none" />
  <path d="M70.7238 30.1545C62.3612 30.1545 55.1499 32.6901 49.1076 37.7569C43.0565 42.8325 38.873 49.6394 36.5659 58.1778L104.618 58.1778C102.306 49.9954 98.0791 43.2763 91.94 38.0293C85.8054 32.7824 78.726 30.1545 70.7238 30.1545L70.7238 30.1545ZM131.042 124.099C122.499 131.037 113.732 136.104 104.75 139.308C95.7633 142.507 85.7572 144.115 74.7272 144.115C64.2245 144.115 54.3986 142.243 45.2362 138.508C36.0694 134.773 28.1551 129.697 21.4843 123.294C14.8092 116.887 9.56226 109.285 5.73912 100.478C1.91157 91.6677 0 82.1977 0 72.0554C0 62.0932 1.81929 52.7067 5.47106 43.9003C9.11403 35.0895 14.1456 27.4432 20.5483 20.9438C26.9554 14.4577 34.5621 9.33815 43.3642 5.60289C52.175 1.86763 61.5571 0 71.5236 0C81.3056 0 90.424 1.91157 98.8789 5.73472C107.329 9.56227 114.624 14.7653 120.763 21.3481C126.902 27.931 131.705 35.8014 135.177 44.9681C138.644 54.1305 140.38 64.0487 140.38 74.7272L140.38 84.329L36.8297 84.329C39.3213 93.0519 44.12 100.079 51.239 105.413C58.3579 110.753 66.7205 113.42 76.3267 113.42C82.3735 113.42 88.0686 112.449 93.4079 110.485C98.7471 108.529 103.282 105.774 107.022 102.21L131.042 124.099Z" transform="matrix(0.9999999 0 0 0.9999999 1317.0458 55.78125)" id="Fill-17" fill="#000000" fill-rule="evenodd" stroke="none" />
</svg>