<?xml version="1.0" encoding="utf-8"?>
<svg width="712px" height="712px" viewbox="0 0 712 712" version="1.1" xmlns:xlink="http://www.w3.org/1999/xlink" xmlns="http://www.w3.org/2000/svg">
  <g id="IconeRating" transform="translate(0.5 0.5)">
    <path d="M0 711L711 711L711 0L0 0L0 711Z" id="Stroke-3" fill="none" fill-rule="evenodd" stroke="none" />
    <path d="M503.985 172.121C532.751 172.121 544.571 208.856 521.464 225.743C489.794 248.554 458.362 271.365 426.96 294.473C406.222 309.581 397.631 336.244 405.334 360.536C417.48 397.568 429.626 434.599 441.506 471.63C450.364 498.885 419.287 521.696 395.883 504.81C364.451 481.999 333.049 459.188 301.646 436.08C280.909 420.971 252.765 420.971 232.027 436.08C200.625 459.188 168.926 481.999 137.524 504.81C114.416 521.696 83.0136 498.885 91.9011 471.63C104.047 434.599 116.194 397.568 128.044 360.536C136.042 336.244 127.451 309.581 106.714 294.473C75.0148 271.365 43.6123 248.554 12.2098 225.743C-10.8977 208.856 0.952327 172.121 29.6886 172.121L146.115 172.121C171.889 172.121 194.7 155.531 202.699 131.239C214.549 94.2075 226.695 57.4725 238.545 20.4413C247.432 -6.81375 285.945 -6.81375 294.832 20.4413C307.008 57.4725 318.829 94.2075 330.975 131.239C338.677 155.531 361.489 172.121 387.292 172.121L503.985 172.121Z" transform="translate(88.80539 101.910065)" id="Fill-1" fill="#000000" fill-rule="evenodd" stroke="none" />
  </g>
</svg>