<svg width="604" height="804" viewBox="0 0 604 804" fill="none" xmlns="http://www.w3.org/2000/svg">
<circle cx="302" cy="744" r="60" fill="none"/>
<g clip-path="url(#clip0_0_1)">
<path fill-rule="evenodd" clip-rule="evenodd" d="M528.5 163.583V364.916C528.5 392.6 505.85 415.25 478.166 415.25H251.666L172.14 487.479C163.835 494.776 151 488.989 151 478.166V415.25H125.833C98.15 415.25 75.5 392.6 75.5 364.916V163.583C75.5 135.9 98.15 113.25 125.833 113.25H478.166C505.85 113.25 528.5 135.9 528.5 163.583ZM226.5 264.25C226.5 250.409 215.175 239.084 201.334 239.084C187.491 239.084 176.166 250.409 176.166 264.25C176.166 278.091 187.491 289.416 201.334 289.416C215.175 289.416 226.5 278.091 226.5 264.25ZM402.666 239.084C388.825 239.084 377.5 250.409 377.5 264.25C377.5 278.091 388.825 289.416 402.666 289.416C416.509 289.416 427.834 278.091 427.834 264.25C427.834 250.409 416.509 239.084 402.666 239.084ZM327.166 264.25C327.166 250.409 315.841 239.084 302 239.084C288.159 239.084 276.834 250.409 276.834 264.25C276.834 278.091 288.159 289.416 302 289.416C315.841 289.416 327.166 278.091 327.166 264.25Z" fill="white"/>
</g>
<defs>
<clipPath id="clip0_0_1">
<rect width="604" height="604" fill="white"/>
</clipPath>
</defs>
</svg>
