<?xml version="1.0" encoding="utf-8"?>
<svg width="617px" height="616px" viewbox="0 0 617 616" version="1.1" xmlns:xlink="http://www.w3.org/1999/xlink" xmlns="http://www.w3.org/2000/svg">
  <path d="M188.23 606.419L5.47577 440.434C1.71118 436.67 0 433.247 0 427.772L0 17.0886C0 2.37245 17.7963 -5.49898 28.7478 4.42586L188.23 149.534L188.23 493.481L182.069 488.347C174.54 482.187 163.931 483.214 157.771 490.401C151.953 497.588 152.637 508.573 160.166 514.7L188.23 537.972L188.23 606.419ZM393.571 464.425L393.571 366.853L378.171 379.858C370.984 385.676 360.032 384.992 353.872 377.497C348.054 370.31 349.081 359.667 356.268 353.506L393.571 322.363L393.571 9.21702L222.453 151.587L222.453 465.075L237.854 452.07C245.041 445.944 255.992 446.937 262.153 454.124C267.971 461.687 266.944 472.262 259.757 478.457L222.453 509.566L222.453 606.795L393.571 464.425ZM455.876 374.393L427.778 350.779L427.778 9.57007L610.532 175.554C614.331 179.319 616.008 182.741 616.008 188.217L616.008 598.9C616.008 613.616 598.246 621.488 587.294 611.563L427.778 466.455L427.778 395.27L433.938 400.746C441.502 406.564 452.077 405.879 458.237 398.35C464.055 391.163 463.405 380.554 455.876 374.393ZM575.658 289.177C594.139 254.953 569.464 213.542 530.449 213.542C491.468 213.542 466.793 254.953 485.274 289.177C500.366 316.898 515.391 344.619 530.449 371.998C545.542 344.619 560.566 316.898 575.658 289.177ZM340.867 388.415C347.027 395.978 346.001 406.553 338.814 412.713C325.467 423.665 312.462 434.616 299.114 445.568C291.927 451.42 281.318 450.701 275.158 443.172C268.998 436.02 270.024 425.376 277.211 419.216C290.558 408.264 303.563 397.347 316.911 386.361C324.098 380.235 334.707 381.228 340.867 388.415ZM471.242 409.301C465.082 416.83 466.143 427.44 473.638 433.6C486.643 444.552 499.648 455.503 513.029 466.455C520.216 472.273 531.133 471.588 536.986 464.059C543.146 456.872 542.085 446.263 534.898 440.102C521.585 429.151 508.58 418.199 495.575 407.248C488.012 401.088 477.437 402.114 471.242 409.301ZM79.0563 424.692C72.896 431.879 73.9227 442.865 81.1097 448.683L120.467 481.537C127.996 487.663 138.605 486.637 144.766 479.45C150.926 472.263 149.899 461.345 142.37 455.493L103.013 422.638C95.8258 416.478 84.8743 417.505 79.0563 424.692Z" id="Fill-5" fill="#000000" fill-rule="evenodd" stroke="none" />
</svg>