<?xml version="1.0" encoding="utf-8"?>
<svg width="668px" height="668px" viewbox="0 0 668 668" version="1.1" xmlns:xlink="http://www.w3.org/1999/xlink" xmlns="http://www.w3.org/2000/svg">
  <g id="IconeViaggioCampagna" transform="translate(0.5 0.5)">
    <path d="M0 667L667 667L667 0L0 0L0 667Z" id="Stroke-10" fill="none" fill-rule="evenodd" stroke="none" />
    <path d="M233.463 311.267C261.533 290.145 277.93 257.351 277.93 222.333C277.93 321.272 397.712 371.019 467.747 300.984C537.782 230.949 488.035 111.167 389.096 111.167C389.096 49.7471 339.349 0 277.93 0C216.51 0 166.763 49.7471 166.763 111.167C97.5618 111.167 45.0355 173.976 57.2639 242.065C103.12 203.435 173.433 224.279 190.942 281.53C209.006 287.088 222.068 295.981 233.463 311.267ZM166.763 305.708C216.233 305.708 240.967 365.46 205.95 400.478C170.932 435.495 111.18 410.761 111.18 361.292C111.18 410.761 51.4279 435.495 16.4104 400.478C-18.6071 365.46 6.12752 305.708 55.5967 305.708C55.5967 275.138 80.6092 250.125 111.18 250.125C141.751 250.125 166.763 275.138 166.763 305.708ZM305.722 333.5C295.161 325.44 285.99 316.269 277.93 305.708C269.871 316.269 260.699 325.44 250.139 333.5L250.139 500.25L305.722 500.25L305.722 333.5ZM125.076 500.239L125.076 433.539C120.074 430.51 115.349 427.175 111.18 423.562C106.734 427.175 102.287 430.51 97.2844 433.539L97.2844 500.239L125.076 500.239Z" transform="translate(83.36142 83.375)" id="Fill-21" fill="#000000" fill-rule="evenodd" stroke="none" />
  </g>
</svg>