<?xml version="1.0" encoding="utf-8"?>
<svg width="685px" height="685px" viewbox="0 0 685 685" version="1.1" xmlns:xlink="http://www.w3.org/1999/xlink" xmlns="http://www.w3.org/2000/svg">
  <g id="IconaDonna" transform="translate(0.5 0.5)">
    <path d="M0 684L684 684L684 0L0 0L0 684Z" id="Stroke-3" fill="none" fill-rule="evenodd" stroke="none" />
    <path d="M255.623 114C263.062 178.695 220.312 238.83 156.728 253.365L156.728 299.25L199.478 299.25C215.153 299.25 227.978 312.075 227.978 327.75C227.978 343.425 215.153 356.25 199.478 356.25L156.728 356.25L156.728 399C156.728 414.675 143.903 427.5 128.228 427.5C112.553 427.5 99.7282 414.675 99.7282 399L99.7282 356.25L56.9782 356.25C41.3032 356.25 28.4782 343.425 28.4782 327.75C28.4782 312.075 41.3032 299.25 56.9782 299.25L99.7282 299.25L99.7282 253.365C36.1732 238.83 -6.57678 178.695 0.833225 114C7.95823 49.02 62.9632 0 128.228 0C193.493 0 248.498 49.02 255.623 114M178.673 178.695C206.347 150.765 206.347 105.735 178.673 77.8051C150.743 50.1601 105.713 50.1601 77.7834 77.8051C50.1383 105.735 50.1383 150.765 77.7834 178.695C105.713 206.34 150.743 206.34 178.673 178.695" transform="translate(213.76306 171)" id="Fill-1" fill="#000000" fill-rule="evenodd" stroke="none" />
  </g>
</svg>