<?xml version="1.0" encoding="utf-8"?>
<svg width="629px" height="629px" viewbox="0 0 629 629" version="1.1" xmlns:xlink="http://www.w3.org/1999/xlink" xmlns="http://www.w3.org/2000/svg">
  <g id="IconaUomo" transform="translate(0.5 0.5)">
    <path d="M0 628L628 628L628 0L0 0L0 628Z" id="Stroke-3" fill="none" fill-rule="evenodd" stroke="none" />
    <path d="M164.085 147.841C138.468 122.46 97.0984 122.46 71.455 147.841C46.0733 173.485 46.0733 214.828 71.455 240.471C97.0984 265.853 138.468 265.853 164.085 240.471C189.493 214.828 189.493 173.485 164.085 147.841M191.299 286.263C144.46 323.682 76.9504 319.757 34.5604 277.367C-7.80341 234.977 -11.7546 167.467 25.6638 120.628C63.1083 73.79 129.807 62.5383 180.597 94.4617C194.439 80.3317 208.569 66.2017 222.699 52.3333L181.094 52.3333C166.728 52.3333 154.927 40.5583 154.927 26.1667C154.927 11.5133 166.728 0 181.094 0L311.927 0L311.927 130.833C311.927 145.225 300.44 157 285.76 157C271.395 157 259.594 145.225 259.594 130.833L259.594 89.2283C245.725 103.358 231.595 117.488 217.465 131.357C249.415 182.12 238.137 248.845 191.299 286.263" transform="translate(196.21643 80.593)" id="Fill-1" fill="#000000" fill-rule="evenodd" stroke="none" />
  </g>
</svg>