<?xml version="1.0" encoding="utf-8"?>
<svg width="697px" height="697px" viewbox="0 0 697 697" version="1.1" xmlns:xlink="http://www.w3.org/1999/xlink" xmlns="http://www.w3.org/2000/svg">
  <g id="IconaEntrambi" transform="translate(0.5 0.5)">
    <path d="M0 696L696 696L696 0L0 0L0 696Z" id="Stroke-3" fill="none" fill-rule="evenodd" stroke="none" />
    <path d="M9.92256 165.3C40.9526 90.48 131.723 61.77 200.192 104.69C215.533 89.03 231.193 73.37 246.853 58L200.743 58C184.793 58 171.743 44.95 171.743 29C171.743 12.76 184.793 0 200.743 0L345.743 0L345.743 145C345.743 160.95 333.012 174 316.743 174C300.793 174 287.743 160.95 287.743 145L287.743 98.89C272.373 114.55 256.713 130.21 241.053 145.58C288.903 221.85 247.143 322.48 159.563 342.49L159.563 389.18L203.063 389.18C219.013 389.18 232.063 402.23 232.063 418.18C232.063 434.13 219.013 447.18 203.063 447.18L159.563 447.18L159.563 490.68C159.563 506.63 146.513 519.68 130.563 519.68C114.613 519.68 101.563 506.63 101.563 490.68L101.563 447.18L58.0626 447.18C42.1126 447.18 29.0626 434.13 29.0626 418.18C29.0626 402.23 42.1126 389.18 58.0626 389.18L101.563 389.18L101.563 342.49C22.6826 324.51 -20.8174 239.83 9.92256 165.3M181.893 163.85C153.473 135.72 107.653 135.72 79.233 163.85C51.103 192.27 51.103 238.09 79.233 266.51C107.653 294.64 153.473 294.64 181.893 266.51C210.023 238.09 210.023 192.27 181.893 163.85" transform="translate(217.43182 89.314316)" id="Fill-1" fill="#000000" fill-rule="evenodd" stroke="none" />
  </g>
</svg>