<?xml version="1.0" encoding="utf-8"?>
<svg width="711px" height="592px" viewbox="0 0 711 592" version="1.1" xmlns:xlink="http://www.w3.org/1999/xlink" xmlns="http://www.w3.org/2000/svg">
  <path d="M78.9333 0L631.467 0C674.88 0 710.4 35.52 710.4 78.9333L710.4 177.6C644.885 177.6 592 230.485 592 296C592 361.515 644.885 414.4 710.4 414.4L710.4 513.067C710.4 556.48 674.88 592 631.467 592L78.9333 592C35.52 592 0 556.48 0 513.067L0 414.4C65.5147 414.4 118.4 361.515 118.4 296C118.4 230.485 65.5147 177.6 0 177.6L0 78.9333C0 35.52 35.52 0 78.9333 0ZM532.8 296L532.8 276.267C532.8 254.56 515.04 236.8 493.333 236.8L374.933 236.8L374.933 296L532.8 296ZM335.467 296L335.467 236.8L217.067 236.8C195.36 236.8 177.6 254.56 177.6 276.267L177.6 296L335.467 296ZM307.445 129.845C287.712 110.111 253.77 116.821 243.114 142.869C232.458 168.917 251.402 197.333 279.818 197.333L430.581 197.333C458.997 197.333 477.941 168.917 467.285 142.869C456.629 116.821 422.688 110.111 402.954 129.845L355.2 177.599L307.445 129.845ZM217.067 335.467L335.467 335.467L335.467 473.6L256.533 473.6C234.827 473.6 217.067 455.84 217.067 434.133L217.067 335.467ZM493.333 434.133C493.333 455.84 475.573 473.6 453.867 473.6L374.933 473.6L374.933 335.467L493.333 335.467L493.333 434.133Z" id="Fill-3" fill="#000000" fill-rule="evenodd" stroke="none" />
</svg>