<svg xmlns="http://www.w3.org/2000/svg" width="719" height="719"><path fill="none" d="M.5 718.5h718V.5H.5v718Z"/><path fill-rule="evenodd" d="M359.5 284.708c16.454 0 29.917-13.462 29.917-29.916 0-16.455-13.463-29.917-29.917-29.917s-29.917 13.462-29.917 29.917c0 16.454 13.463 29.916 29.917 29.916Zm0 209.417c16.454 0 29.917-13.462 29.917-29.917V344.542c0-16.454-13.463-29.917-29.917-29.917s-29.917 13.463-29.917 29.917v119.666c0 16.455 13.463 29.917 29.917 29.917Z"/><path fill-rule="evenodd" d="M329.583 626.967V597.05c-119.666-15.287-209.416-116.974-209.416-237.538 0-120.564 89.75-222.311 209.416-237.539V92.057C193.163 107.284 90.25 222.464 90.25 359.512c0 137.018 102.913 252.168 239.333 267.455Zm269.25-267.455c0 120.564-89.75 222.25-209.416 237.538v29.917C525.837 611.68 628.75 496.53 628.75 359.512c0-137.048-102.913-252.228-239.333-267.455v29.916c119.666 15.228 209.416 116.975 209.416 237.539Z"/></svg>
