<?xml version="1.0" encoding="utf-8"?>
<svg width="676px" height="676px" viewbox="0 0 676 676" version="1.1" xmlns:xlink="http://www.w3.org/1999/xlink" xmlns="http://www.w3.org/2000/svg">
  <g id="IconeViaggio-coppia" transform="translate(0.5 0.5)">
    <path d="M0 675L675 675L675 0L0 0L0 675Z" id="Stroke-14" fill="none" fill-rule="evenodd" stroke="none" />
    <g id="Group-13" transform="translate(77.34375 126.5625)">
      <path d="M285.823 37.7578L214.105 109.477C205.948 117.633 205.948 130.852 214.105 139.289C222.542 147.445 235.761 147.445 243.917 139.289L282.73 100.477L434.886 252.914L467.792 220.008C518.136 169.664 518.136 88.1016 467.792 37.7578C417.73 -12.5859 336.167 -12.5859 285.823 37.7578ZM220.008 37.7638C169.664 -12.5799 88.1016 -12.5799 37.7578 37.7638C-12.5859 88.1076 -12.5859 169.67 37.7578 220.014L54.0703 236.045L63.9141 226.201C83.0391 207.076 114.258 207.076 133.383 226.201C143.789 236.608 148.008 247.014 148.008 261.611C162.633 261.358 173.039 265.576 183.164 275.983C193.57 286.389 197.789 296.514 197.789 311.139C212.133 311.139 222.539 315.358 232.945 325.764C243.352 335.889 247.57 346.295 247.289 360.92C261.914 360.92 272.32 365.139 282.727 375.264C292.008 384.826 296.508 394.389 297.07 407.889C317.32 411.545 330.258 386.795 315.633 372.17L256.008 312.545C250.664 306.92 250.664 298.201 256.008 292.576C261.633 287.233 270.352 287.233 275.977 292.576L335.602 352.201C343.758 360.639 357.258 360.639 365.414 352.201C373.57 344.045 373.57 330.826 365.414 322.389L305.789 262.764C300.164 257.42 300.164 248.42 305.789 242.795C311.133 237.451 320.133 237.451 325.758 242.795L385.383 302.701C393.539 310.829 406.758 310.829 415.195 302.701C423.352 294.264 423.352 281.045 415.195 272.889L355.57 213.264L282.727 140.42C276.539 146.326 270.07 152.795 263.883 158.983C244.758 178.389 213.539 178.389 194.414 158.983C175.008 139.858 175.008 108.639 194.414 89.5138C207.07 76.5763 220.008 63.6388 232.945 50.7013L220.008 37.7638ZM113.701 275.999C121.857 267.843 121.857 254.315 113.701 246.159C105.264 237.721 92.0449 237.721 83.8886 246.159C77.1386 252.628 70.6699 259.406 63.9199 265.846C55.7636 274.284 55.7636 287.531 63.9199 295.968C72.0761 304.124 85.5761 304.124 93.7324 295.968C100.482 289.19 106.951 282.44 113.701 275.999ZM163.485 325.755C156.735 332.224 149.985 338.974 143.517 345.443C135.36 353.88 121.86 353.88 113.704 345.443C105.267 337.287 105.267 324.068 113.704 315.658C120.173 309.162 126.923 302.412 133.392 295.943C141.829 287.533 155.048 287.533 163.485 295.943C171.642 304.099 171.642 317.318 163.485 325.755ZM212.976 345.448C204.82 337.292 191.601 337.292 183.164 345.448C176.695 352.198 169.945 358.667 163.476 365.417C155.039 373.573 155.039 387.073 163.476 395.229C171.633 403.385 184.851 403.385 193.289 395.229C199.758 388.479 206.508 382.01 212.976 375.26C221.414 367.104 221.414 353.885 212.976 345.448ZM232.946 395.216C241.102 387.087 254.602 387.087 262.758 395.216C270.914 403.372 270.914 416.9 262.758 425.056C256.289 431.806 249.539 438.247 242.789 445.025C234.633 453.181 221.414 453.181 212.977 445.025C204.821 436.841 204.821 423.341 212.977 415.212C219.727 408.462 226.196 401.966 232.946 395.216Z" transform="translate(6.955719 6.1145782)" id="Fill-10" fill="#000000" fill-rule="evenodd" stroke="none" />
    </g>
  </g>
</svg>