<?xml version="1.0" encoding="utf-8"?>
<svg width="689px" height="689px" viewbox="0 0 689 689" version="1.1" xmlns:xlink="http://www.w3.org/1999/xlink" xmlns="http://www.w3.org/2000/svg">
  <g id="IconeViaggioMontagna" transform="translate(0.5 0.5)">
    <path d="M0 688L688 688L688 0L0 0L0 688Z" id="Stroke-6" fill="none" fill-rule="evenodd" stroke="none" />
    <path d="M515.997 516.072C448.343 350.092 380.719 184.112 313.323 17.845C303.577 -5.94833 269.75 -5.94833 260.003 17.845C232.77 84.925 205.537 152.005 178.332 219.372C182.89 224.532 186.33 229.978 189.197 236.572C227.037 329.738 264.905 422.905 303.032 516.072L515.997 516.072ZM162.54 247.178C152.793 223.385 119.253 223.385 109.507 247.178C72.8133 336.905 36.4067 426.345 0 516.072L272.047 516.072C235.353 426.345 198.947 336.905 162.54 247.178Z" transform="translate(85.99388 85.93088)" id="Fill-18" fill="#000000" fill-rule="evenodd" stroke="none" />
  </g>
</svg>