<svg width="604" height="804" viewBox="0 0 604 804" fill="none" xmlns="http://www.w3.org/2000/svg">
<g clip-path="url(#clip0_0_1)">
<path fill-rule="evenodd" clip-rule="evenodd" d="M147.227 386.298C141.187 375.25 136.657 363.9 133.134 351.845C102.682 356.124 75.5024 332.693 75.5024 301.99C75.5024 271.287 102.682 247.882 133.134 252.16C136.657 240.08 141.187 228.755 147.227 217.682C122.816 199.31 120.047 163.574 141.942 141.955C163.586 120.035 199.322 122.803 217.694 147.215C228.767 141.175 240.092 136.67 252.172 133.122C247.894 102.67 271.299 75.4901 302.002 75.4901C332.705 75.4901 356.11 102.67 351.832 133.122C363.912 136.67 375.237 141.175 386.31 147.215C404.682 122.803 440.419 120.035 462.062 141.955C483.957 163.574 481.189 199.31 456.777 217.682C462.817 228.755 467.347 240.08 470.87 252.16C501.322 247.882 528.502 271.287 528.502 301.99C528.502 332.693 501.322 356.124 470.87 351.845C467.347 363.9 462.817 375.25 456.777 386.298C481.189 404.67 483.957 440.407 462.062 462.075C440.419 483.97 404.682 481.202 386.31 456.79C375.237 462.805 363.912 467.36 351.832 470.858C356.11 501.31 332.705 528.49 302.002 528.49C271.299 528.49 247.894 501.31 252.172 470.858C240.092 467.36 228.767 462.805 217.694 456.79C199.322 481.202 163.586 483.97 141.942 462.075C120.047 440.407 122.816 404.67 147.227 386.298ZM424.06 332.693C440.897 265.247 400.152 196.793 332.705 179.932C265.259 163.07 196.805 203.84 179.944 271.287C163.082 338.733 203.852 407.187 271.299 424.048C338.745 440.91 407.199 400.165 424.06 332.693ZM320.371 228.76C360.89 238.827 385.301 279.848 375.235 320.367C365.168 360.885 324.146 385.297 283.628 375.23C243.11 365.163 218.698 324.142 228.765 283.623C238.831 243.105 279.853 218.693 320.371 228.76Z" fill="white"/>
</g>
<circle cx="302" cy="744" r="60" fill="none"/>
<defs>
<clipPath id="clip0_0_1">
<rect width="604" height="604" fill="white"/>
</clipPath>
</defs>
</svg>
