<?xml version="1.0" encoding="utf-8"?>
<svg width="758px" height="758px" viewbox="0 0 758 758" version="1.1" xmlns:xlink="http://www.w3.org/1999/xlink" xmlns="http://www.w3.org/2000/svg">
  <g id="IconeDownload" transform="translate(0.5 0.5)">
    <path d="M0 757L757 757L757 0L0 0L0 757Z" id="Stroke-6" fill="none" fill-rule="evenodd" stroke="none" />
    <path d="M373.138 263.057L315.417 320.779L315.417 31.5417C315.417 14.1938 301.223 0 283.875 0C266.527 0 252.333 14.1938 252.333 31.5417L252.333 320.779L194.612 263.057C182.311 250.756 162.44 250.756 150.138 263.057C137.837 275.359 137.837 295.545 150.138 307.847L283.875 441.583L417.612 307.847C429.913 295.545 429.913 275.359 417.612 263.057C405.31 250.756 385.439 250.756 373.138 263.057ZM567.75 504.669L567.75 315.42C567.75 298.072 553.556 283.878 536.208 283.878C518.86 283.878 504.667 298.072 504.667 315.42L504.667 504.669L63.0833 504.669L63.0833 315.42C63.0833 298.072 48.8896 283.878 31.5417 283.878C14.1938 283.878 0 298.072 0 315.42L0 504.669C0 539.365 28.3875 567.753 63.0833 567.753L504.667 567.753C539.362 567.753 567.75 539.365 567.75 504.669Z" transform="translate(94.625 94.62212)" id="Fill-12" fill="#000000" fill-rule="evenodd" stroke="none" />
  </g>
</svg>