<?xml version="1.0" encoding="utf-8"?>
<svg width="685px" height="685px" viewbox="0 0 685 685" version="1.1" xmlns:xlink="http://www.w3.org/1999/xlink" xmlns="http://www.w3.org/2000/svg">
  <g id="IconeImpostazioni">
    <g id="IconeAccountUomo">
      <path d="M0 685L685 685L685 0L0 0L0 685Z" id="Stroke-6" fill="none" fill-rule="evenodd" stroke="none" />
      <path d="M362.698 114.167C362.698 51.0896 311.608 0 248.531 0C185.454 0 134.365 51.0896 134.365 114.167C134.365 177.244 185.454 228.333 248.531 228.333C311.608 228.333 362.698 177.244 362.698 114.167ZM248.532 256.875C362.127 256.875 462.309 331.369 494.561 440.398C505.692 476.931 478.292 513.75 440.046 513.75L57.0171 513.75C18.7712 513.75 -8.62878 476.931 2.50247 440.398C34.7546 331.369 134.936 256.875 248.532 256.875ZM319.03 328.8C298.48 309.392 265.657 312.531 248.532 335.079C231.407 312.531 198.584 309.392 178.034 328.8C157.198 348.208 158.055 381.317 179.461 399.869C202.58 419.277 225.413 438.971 248.532 458.665C271.65 438.971 294.484 419.277 317.603 399.869C339.009 381.317 339.865 348.208 319.03 328.8Z" transform="translate(93.96868 85.625)" id="Fill-3" fill="#FFFFFF" fill-rule="evenodd" stroke="none" />
    </g>
  </g>
</svg>