<?xml version="1.0" encoding="utf-8"?>
<svg width="652px" height="652px" viewbox="0 0 652 652" version="1.1" xmlns:xlink="http://www.w3.org/1999/xlink" xmlns="http://www.w3.org/2000/svg">
  <path d="M323.683 0C144.75 0.977522 0 146.334 0 325.497L0 325.497C0 504.666 144.744 650.029 323.683 651L323.683 651L327.317 651C506.25 650.029 651 504.666 651 325.497L651 325.497C651 146.334 506.25 0.977522 327.311 0L327.311 0L323.683 0ZM300.464 100.155L350.542 100.155C378.195 100.155 400.619 122.579 400.619 150.232L400.619 150.232L250.387 150.232C250.387 122.579 272.805 100.155 300.464 100.155L300.464 100.155ZM500.768 175.265C528.421 175.265 550.845 197.683 550.845 225.342L550.845 225.342L550.845 425.634C550.845 453.294 528.421 475.706 500.768 475.706L500.768 475.706L500.768 175.265ZM175.271 538.297L175.271 175.265L475.735 175.265L475.735 475.706L275.426 475.706C249.015 499.667 222.604 523.616 196.199 547.577L196.199 547.577C193.708 549.833 190.758 550.845 187.867 550.845L187.867 550.845C181.419 550.845 175.271 545.805 175.271 538.297L175.271 538.297ZM100.155 425.634L100.155 225.342C100.155 197.683 122.567 175.265 150.232 175.265L150.232 175.265L150.232 475.706C122.567 475.706 100.155 453.294 100.155 425.634L100.155 425.634Z" transform="scale(0.9999999 0.9999999)" id="Fill-4" fill="#000000" fill-rule="evenodd" stroke="none" />
  <path d="M75.1101 16.6894C60.1999 -3.1908 31.3042 -5.71116 13.1847 11.2895L13.1847 11.2895C-4.9466 28.3019 -4.28706 57.286 14.6038 73.4446L14.6038 73.4446C34.7726 90.6925 54.9472 107.94 75.1101 125.188L75.1101 125.188C95.2847 107.94 115.453 90.6925 135.622 73.4446L135.622 73.4446C154.513 57.286 155.179 28.3019 137.041 11.2895L137.041 11.2895C128.944 3.69896 118.71 0.000868714 108.528 0.000868714L108.528 0.000868714C95.903 0.000868714 83.3719 5.68345 75.1101 16.6894" transform="matrix(0.9999999 0 0 0.9999999 250.3866 262.89417)" id="Fill-5" fill="#000000" fill-rule="evenodd" stroke="none" />
</svg>