<?xml version="1.0" encoding="utf-8"?>
<svg width="673px" height="673px" viewbox="0 0 673 673" version="1.1" xmlns:xlink="http://www.w3.org/1999/xlink" xmlns="http://www.w3.org/2000/svg">
  <g id="IconeFrecciaGiù" transform="matrix(1.1924881E-08 1 -1 1.1924881E-08 672.5 0.5)">
    <path d="M0 672L672 672L672 0L0 0L0 672Z" id="Stroke-3" fill="none" fill-rule="evenodd" stroke="none" />
    <path d="M47.95 8.19C87.43 47.95 126.91 87.43 166.67 127.19C126.91 166.67 87.43 206.15 47.95 245.91C37.03 256.83 19.11 256.83 8.19 245.91C-2.73 234.99 -2.73 217.35 8.19 206.15C34.51 179.83 61.11 153.51 87.43 127.19C61.11 100.59 34.51 74.27 8.19 47.95C-2.73 37.03 -2.73 19.11 8.19 8.19C19.11 -2.73 37.03 -2.73 47.95 8.19" transform="translate(248.56406 213.00696)" id="Fill-1" fill="#000000" fill-rule="evenodd" stroke="none" />
  </g>
</svg>