<?xml version="1.0" encoding="utf-8"?>
<svg width="733px" height="611px" viewbox="0 0 733 611" version="1.1" xmlns:xlink="http://www.w3.org/1999/xlink" xmlns="http://www.w3.org/2000/svg">
  <path d="M528.959 248.2C545.235 248.2 553.779 264.882 547.676 277.496L612.778 280.344C624.171 225.008 673.404 183.098 732.402 183.098L732.402 81.377C732.402 36.6197 695.782 0 651.025 0L81.3857 0C36.6284 0 0.00870514 36.6197 0.00870514 81.377L0.00870514 183.098C59.0068 183.098 108.24 225.007 119.633 280.343L119.624 280.344C121.252 288.482 122.066 296.619 122.066 305.164C122.066 372.707 67.5429 427.23 0 427.23L0 528.951C0 573.708 36.6197 610.328 81.377 610.328L651.016 610.328C695.774 610.328 732.393 573.708 732.393 528.951L732.393 427.23C664.85 427.23 610.328 372.707 610.328 305.164C610.328 296.619 611.142 288.482 612.769 280.344L547.667 277.496C546.04 280.344 544.005 282.785 541.157 284.82C519.592 300.688 498.027 316.15 476.056 332.018C461.815 342.191 456.118 360.907 461.408 377.59C469.546 402.857 478.09 428.45 486.228 453.718C492.331 472.434 470.766 488.262 454.898 476.463C433.373 461.001 411.768 445.173 390.203 429.264C375.962 419.092 356.431 419.092 342.19 429.264C320.626 445.173 299.061 461.001 277.496 476.463C261.627 488.262 240.062 472.434 246.166 453.718C254.303 428.45 262.848 402.857 270.986 377.59C276.275 360.907 270.579 342.191 256.338 332.018C234.773 316.15 213.208 300.688 191.236 284.82C187.167 281.565 184.319 277.496 183.099 273.428L183.107 273.427C180.666 261.627 188.803 248.2 203.451 248.2L283.608 248.2C301.104 248.2 316.565 236.807 322.262 220.125C330.399 194.491 338.537 169.264 346.675 144.037C352.778 125.321 379.633 125.321 385.329 144.037C393.874 169.264 402.011 194.491 410.149 220.125C415.845 236.807 431.307 248.2 448.803 248.2L528.959 248.2Z" id="Fill-4" fill="#000000" fill-rule="evenodd" stroke="none" />
</svg>