<?xml version="1.0" encoding="utf-8"?>
<svg width="658px" height="658px" viewbox="0 0 658 658" version="1.1" xmlns:xlink="http://www.w3.org/1999/xlink" xmlns="http://www.w3.org/2000/svg">
  <g id="IconeViaggioMare" transform="translate(0.5 0.5)">
    <path d="M0 657L657 657L657 0L0 0L0 657Z" id="Stroke-8" fill="none" fill-rule="evenodd" stroke="none" />
    <path d="M61.5937 98.8238C42.1575 110.869 22.995 116.344 0 116.344L0 61.5938C33.945 61.5938 61.5937 33.945 61.5937 0C61.5937 33.945 89.2425 61.5938 123.187 61.5938C157.132 61.5938 184.781 33.945 184.781 0C184.781 33.945 212.43 61.5938 246.375 61.5938C280.32 61.5938 307.969 33.945 307.969 0C307.969 33.945 335.617 61.5938 369.562 61.5938C403.507 61.5938 431.156 33.945 431.156 0C431.156 33.945 458.805 61.5938 492.75 61.5938L492.75 116.344C469.755 116.344 450.592 110.869 431.156 98.8238C393.379 122.092 345.746 122.092 307.969 98.8238C270.191 122.092 222.559 122.092 184.781 98.8238C147.004 122.092 99.3712 122.092 61.5937 98.8238ZM61.5937 245.844C42.1575 257.862 22.995 263.364 0 263.364L0 208.614C33.945 208.614 61.5937 181.239 61.5937 147.267C61.5937 181.239 89.2425 208.614 123.187 208.614C157.132 208.614 184.781 181.239 184.781 147.267C184.781 181.239 212.43 208.614 246.375 208.614C280.32 208.614 307.969 181.239 307.969 147.267C307.969 181.239 335.617 208.614 369.562 208.614C403.507 208.614 431.156 181.239 431.156 147.267C431.156 181.239 458.805 208.614 492.75 208.614L492.75 263.364C469.755 263.364 450.592 257.862 431.156 245.844C393.379 269.359 345.746 269.359 307.969 245.844C270.191 269.359 222.559 269.359 184.781 245.844C147.004 269.359 99.3712 269.359 61.5937 245.844ZM0 369.565C33.945 369.565 61.5937 341.916 61.5937 307.971C61.5937 341.916 89.2425 369.565 123.187 369.565C157.132 369.565 184.781 341.916 184.781 307.971C184.781 341.916 212.43 369.565 246.375 369.565C280.32 369.565 307.969 341.916 307.969 307.971C307.969 341.916 335.617 369.565 369.562 369.565C403.507 369.565 431.156 341.916 431.156 307.971C431.156 341.916 458.805 369.565 492.75 369.565L492.75 424.315C469.755 424.315 450.592 418.84 431.156 406.795C393.379 430.064 345.746 430.064 307.969 406.795C270.191 430.064 222.559 430.064 184.781 406.795C147.004 430.064 99.3712 430.064 61.5937 406.795C42.1575 418.84 22.995 424.315 0 424.315L0 369.565Z" transform="translate(82.125 116.34125)" id="Fill-17" fill="#000000" fill-rule="evenodd" stroke="none" />
  </g>
</svg>