<svg width="604" height="804" viewBox="0 0 604 804" fill="none" xmlns="http://www.w3.org/2000/svg">
<circle cx="302" cy="744" r="60" fill="none"/>
<g clip-path="url(#clip0_0_1)">
<path fill-rule="evenodd" clip-rule="evenodd" d="M377.5 276.833C391.342 276.833 402.667 288.158 402.667 302C402.667 315.842 391.342 327.167 377.5 327.167V503.333C377.5 517.175 366.175 528.5 352.333 528.5C338.492 528.5 327.167 517.175 327.167 503.333V100.667C327.167 86.825 338.492 75.5 352.333 75.5C366.175 75.5 377.5 86.825 377.5 100.667V276.833ZM151 251.667L302 100.667V503.333L151 352.333V251.667ZM506.356 173.144C516.171 182.959 516.171 198.814 506.356 208.629C494.528 220.457 482.699 232.537 470.871 244.366C461.056 254.181 444.949 254.181 435.134 244.366C425.319 234.551 425.319 218.444 435.134 208.629C446.963 196.801 459.043 184.972 470.871 173.144C480.661 163.329 496.541 163.329 506.356 173.144ZM100.667 226.5C114.508 226.5 125.833 237.825 125.833 251.667V352.333C125.833 366.175 114.508 377.5 100.667 377.5C86.825 377.5 75.5 366.175 75.5 352.333V251.667C75.5 237.825 86.825 226.5 100.667 226.5ZM478.167 276.833H503.333C517.175 276.833 528.5 288.158 528.5 302C528.5 315.842 517.175 327.167 503.333 327.167H478.167C464.325 327.167 453 315.842 453 302C453 288.158 464.325 276.833 478.167 276.833ZM506.356 395.368C516.171 405.183 516.171 421.063 506.356 430.853C496.541 440.668 480.661 440.668 470.871 430.853C459.043 419.025 446.963 407.197 435.134 395.368C425.319 385.553 425.319 369.447 435.134 359.632C444.949 349.817 461.056 349.817 470.871 359.632C482.699 371.46 494.528 383.54 506.356 395.368Z" fill="white"/>
</g>
<defs>
<clipPath id="clip0_0_1">
<rect width="604" height="604" fill="white"/>
</clipPath>
</defs>
</svg>
