<?xml version="1.0" encoding="utf-8"?>
<svg width="584px" height="584px" viewbox="0 0 584 584" version="1.1" xmlns:xlink="http://www.w3.org/1999/xlink" xmlns="http://www.w3.org/2000/svg">
  <path d="M159.937 555.927C123.513 592.351 63.7413 592.351 27.3177 555.927C-9.10591 519.504 -9.10591 459.732 27.3177 423.308L159.937 291.622L27.3177 159.937C-9.10591 123.513 -9.10591 63.7413 27.3177 27.3177C63.7413 -9.10591 123.513 -9.10591 159.937 27.3177L291.622 159.937L423.308 27.3177C459.732 -9.10591 519.597 -9.10591 555.927 27.3177C592.351 63.7413 592.351 123.513 555.927 159.937L423.308 291.622L555.927 423.308C592.351 459.732 592.351 519.504 555.927 555.927C519.597 592.351 459.732 592.351 423.308 555.927L291.622 423.308L159.937 555.927Z" id="Fill-3" fill="#000000" fill-rule="evenodd" stroke="none" />
</svg>