<?xml version="1.0" encoding="utf-8"?>
<svg width="375px" height="60px" viewbox="0 0 375 60" version="1.1" xmlns:xlink="http://www.w3.org/1999/xlink" xmlns="http://www.w3.org/2000/svg">
  <defs>
    <linearGradient x1="0" y1="0.49999988" x2="1.0000002" y2="0.49999988" id="gradient_1">
      <stop offset="0" stop-color="#DB143B" />
      <stop offset="1" stop-color="#FF9900" />
    </linearGradient>
    <linearGradient x1="-7.981852E-06" y1="0.49999037" x2="0.9999938" y2="0.49999037" id="gradient_2">
      <stop offset="0" stop-color="#DB143B" />
      <stop offset="1" stop-color="#FF9900" />
    </linearGradient>
    <rect width="375" height="60" id="artboard_1" />
    <clipPath id="clip_1">
      <use xlink:href="#artboard_1" clip-rule="evenodd" />
    </clipPath>
  </defs>
  <g id="HeaderBack" clip-path="url(#clip_1)">
    <path d="M0 0L375 0L375 60L0 60L0 0Z" id="Rectangle" fill="#FFFFFF" fill-rule="evenodd" stroke="none" />
    <g id="LogoOrizzontaleBianco" transform="translate(112.5 11.55)">
      <path d="M18.2817 0C8.1755 0.0552106 0 8.26497 0 18.3841L0 18.3841C0 28.5037 8.17517 36.7137 18.2817 36.7686L18.2817 36.7686L18.4869 36.7686C28.5931 36.7137 36.7686 28.5037 36.7686 18.3841L36.7686 18.3841C36.7686 8.26497 28.5931 0.0552106 18.4866 0L18.4866 0L18.2817 0ZM16.9703 5.65676L19.7987 5.65676C21.3605 5.65676 22.6271 6.92328 22.6271 8.48514L22.6271 8.48514L14.1419 8.48514C14.1419 6.92328 15.4081 5.65676 16.9703 5.65676L16.9703 5.65676ZM28.2835 9.899C29.8453 9.899 31.1119 11.1652 31.1119 12.7274L31.1119 12.7274L31.1119 24.0399C31.1119 25.6021 29.8453 26.868 28.2835 26.868L28.2835 26.868L28.2835 9.899ZM9.89934 30.4031L9.89934 9.899L26.8696 9.899L26.8696 26.868L15.5561 26.868C14.0644 28.2213 12.5727 29.5739 11.0814 30.9273L11.0814 30.9273C10.9407 31.0547 10.7741 31.1119 10.6108 31.1119L10.6108 31.1119C10.2466 31.1119 9.89934 30.8272 9.89934 30.4031L9.89934 30.4031ZM5.65676 24.0399L5.65676 12.7274C5.65676 11.1652 6.92262 9.899 8.48514 9.899L8.48514 9.899L8.48514 26.868C6.92262 26.868 5.65676 25.6021 5.65676 24.0399L5.65676 24.0399Z" transform="matrix(1 0 0 1 -2.1316282E-14 -2.1316282E-14)" id="Fill-4" fill="url(#gradient_1)" fill-rule="evenodd" stroke="none" />
      <path d="M4.24223 0.942621C3.40011 -0.180217 1.76807 -0.322567 0.744673 0.637632L0.744673 0.637632C-0.279385 1.5985 -0.242134 3.23553 0.824828 4.14816L0.824828 4.14816C1.96396 5.12233 3.10343 6.0965 4.24223 7.07067L4.24223 7.07067C5.3817 6.0965 6.52084 5.12233 7.65997 4.14816L7.65997 4.14816C8.72694 3.23553 8.76452 1.5985 7.74013 0.637632L7.74013 0.637632C7.28281 0.208918 6.70476 4.90651e-05 6.12971 4.90651e-05L6.12971 4.90651e-05C5.41662 4.90651e-05 4.70886 0.321003 4.24223 0.942621" transform="translate(14.141913 14.848289)" id="Fill-1" fill="url(#gradient_2)" fill-rule="evenodd" stroke="none" />
      <path d="M0 2.58559L0 0L12.4427 0L12.4427 2.58559L7.6959 2.58559L7.6959 14.1392L4.76707 14.1392L4.76707 2.58559L0 2.58559Z" transform="translate(39.596977 11.273515)" id="Fill-7" fill="#000000" fill-rule="evenodd" stroke="none" />
      <path d="M0 10.7661L0 0.242129L2.76718 0.242129L2.76718 1.39357C3.10377 0.93592 3.5112 0.589024 3.98914 0.353215C4.46707 0.118071 4.9959 0 5.57495 0C5.84401 0.0136364 6.06985 0.0372505 6.25144 0.0708426C6.43337 0.104435 6.59135 0.161641 6.72639 0.242129L6.72639 2.66608C6.52417 2.57228 6.302 2.50144 6.05987 2.45421C5.81707 2.40698 5.56796 2.3837 5.31253 2.3837C4.77373 2.3837 4.27849 2.51807 3.82783 2.78747C3.37616 3.05687 3.02295 3.44734 2.76718 3.95887L2.76718 10.7661L0 10.7661Z" transform="translate(52.625324 14.646752)" id="Fill-9" fill="#000000" fill-rule="evenodd" stroke="none" />
      <path d="M0.202217 14.9272L2.9694 14.9272L2.9694 4.40322L0.202217 4.40322L0.202217 14.9272ZM1.5755 3.151C1.14446 3.151 0.774279 2.99634 0.464634 2.68636C0.154656 2.37705 0 2.00654 0 1.5755C0 1.14446 0.154656 0.774279 0.464634 0.464634C0.774279 0.154989 1.14446 0 1.5755 0C2.00621 0 2.37672 0.154989 2.68636 0.464634C2.99601 0.774279 3.151 1.14446 3.151 1.5755C3.151 2.00654 2.99601 2.37705 2.68636 2.68636C2.37672 2.99634 2.00621 3.151 1.5755 3.151L1.5755 3.151Z" transform="translate(60.644238 10.485699)" id="Fill-11" fill="#000000" fill-rule="evenodd" stroke="none" />
      <path d="M5.27228 2.36308C4.77372 2.36308 4.30909 2.44756 3.87871 2.61552C3.44734 2.78415 3.07716 3.0296 2.76752 3.35288L2.76752 7.49368C3.06352 7.79002 3.43071 8.02583 3.8684 8.20078C4.30576 8.37572 4.77372 8.46319 5.27228 8.46319C6.13403 8.46319 6.86075 8.17051 7.45377 7.58448C8.04612 6.99878 8.34246 6.27506 8.34246 5.4133C8.34246 4.55155 8.04246 3.82749 7.44346 3.24213C6.84445 2.6561 6.12073 2.36308 5.27228 2.36308L5.27228 2.36308ZM0 14.8863L0 0.14102L2.72727 0.14102L2.72727 1.00976C3.14434 0.673503 3.60898 0.420732 4.12084 0.252106C4.63237 0.0838137 5.16419 0 5.71663 0C6.45698 0 7.15377 0.14102 7.80698 0.424058C8.4602 0.706763 9.02926 1.09058 9.51419 1.5755C9.99878 2.06009 10.3789 2.63282 10.6553 3.29235C10.931 3.95222 11.0694 4.65898 11.0694 5.4133C11.0694 6.1673 10.928 6.87439 10.645 7.53426C10.3623 8.19379 9.97849 8.76619 9.49357 9.25078C9.00898 9.7357 8.43326 10.1165 7.76674 10.3922C7.10022 10.6683 6.3898 10.8063 5.63581 10.8063C5.12394 10.8063 4.62239 10.7355 4.13082 10.5941C3.63924 10.4528 3.18492 10.2476 2.76752 9.97816L2.76752 14.8863L0 14.8863Z" transform="translate(65.77434 14.747894)" id="Fill-13" fill="#000000" fill-rule="evenodd" stroke="none" />
      <path d="M2.1612 10.8672L2.1612 5.63581L0 5.63581L0 3.31264L2.1612 3.31264L2.1612 0.626275L4.92838 0L4.92838 3.31264L7.91807 3.31264L7.91807 5.63581L4.92838 5.63581L4.92838 10.3018C4.92838 10.8 5.03647 11.1502 5.25166 11.3521C5.46685 11.5537 5.84401 11.6551 6.38281 11.6551C6.63858 11.6551 6.88071 11.6381 7.1102 11.6045C7.33869 11.571 7.5878 11.5071 7.85754 11.4126L7.85754 13.6746C7.56086 13.7694 7.20399 13.8466 6.78692 13.9071C6.36918 13.9676 6.0123 13.9982 5.71629 13.9982C4.5449 13.9982 3.6592 13.7322 3.0602 13.2003C2.46053 12.6685 2.1612 11.8906 2.1612 10.8672" transform="translate(77.30811 11.576343)" id="Fill-14" fill="#000000" fill-rule="evenodd" stroke="none" />
      <path d="M5.61552 8.52373C6.42339 8.52373 7.1102 8.22772 7.67561 7.63503C8.24135 7.04268 8.52406 6.32228 8.52406 5.47384C8.52406 4.61208 8.24135 3.88503 7.67561 3.29235C7.1102 2.69967 6.42339 2.40366 5.61552 2.40366C4.80732 2.40366 4.12084 2.69967 3.5551 3.29235C2.98936 3.88503 2.70665 4.61208 2.70665 5.47384C2.70665 6.32228 2.98936 7.04268 3.5551 7.63503C4.12084 8.22772 4.80732 8.52373 5.61552 8.52373M0 5.47384C0 4.70621 0.144679 3.98914 0.434368 3.32262C0.723725 2.65577 1.12118 2.07705 1.62605 1.58548C2.13093 1.0939 2.72694 0.706763 3.41375 0.424058C4.10056 0.141353 4.83426 0 5.61552 0C6.39645 0 7.13049 0.141353 7.81697 0.424058C8.5041 0.706763 9.09978 1.0939 9.60466 1.58548C10.1099 2.07705 10.5067 2.65577 10.7963 3.32262C11.0857 3.98914 11.2307 4.70621 11.2307 5.47384C11.2307 6.24146 11.0857 6.9582 10.7963 7.62506C10.5067 8.29157 10.1099 8.86696 9.60466 9.35188C9.09978 9.83647 8.5041 10.2206 7.81697 10.5033C7.13049 10.786 6.39645 10.9277 5.61552 10.9277C4.83426 10.9277 4.10056 10.786 3.41375 10.5033C2.72694 10.2206 2.13093 9.83647 1.62605 9.35188C1.12118 8.86696 0.723725 8.29157 0.434368 7.62506C0.144679 6.9582 0 6.24146 0 5.47384" transform="translate(86.01396 14.687295)" id="Fill-15" fill="#000000" fill-rule="evenodd" stroke="none" />
      <path d="M0 9.4327L1.37361 7.59479C1.99257 7.99856 2.5786 8.29856 3.13071 8.49379C3.68248 8.68902 4.23459 8.78647 4.78736 8.78647C5.40632 8.78647 5.90122 8.68537 6.2714 8.48348C6.64191 8.28126 6.82716 8.01219 6.82716 7.67561C6.82716 7.40621 6.72273 7.19069 6.51419 7.02905C6.30532 6.86741 5.97173 6.75299 5.51408 6.68548L3.49424 6.38248C2.45721 6.22117 1.6663 5.88459 1.12084 5.37273C0.575388 4.8612 0.302993 4.18104 0.302993 3.33259C0.302993 2.32284 0.699779 1.51463 1.49468 0.908647C2.28925 0.302661 3.35288 0 4.68625 0C5.45355 0 6.20122 0.111086 6.92827 0.333259C7.65532 0.555432 8.34878 0.88204 9.00865 1.31275L7.67561 3.09047C7.09657 2.75388 6.54446 2.50144 6.01929 2.33282C5.49413 2.16452 4.96198 2.08038 4.4235 2.08038C3.92528 2.08038 3.52484 2.17483 3.22184 2.36308C2.91852 2.552 2.76718 2.80111 2.76718 3.11042C2.76718 3.39346 2.87827 3.61231 3.10044 3.76696C3.32262 3.92195 3.68947 4.03304 4.20133 4.10022L6.22118 4.40321C7.24424 4.55155 8.03548 4.88814 8.59457 5.41297C9.15333 5.93814 9.43271 6.60499 9.43271 7.41286C9.43271 7.91109 9.31497 8.37239 9.07949 8.79645C8.84368 9.22051 8.52406 9.58769 8.11996 9.89734C7.71586 10.2073 7.23093 10.4498 6.66552 10.6244C6.10011 10.7993 5.48714 10.8871 4.82761 10.8871C3.8714 10.8871 2.97572 10.7624 2.14091 10.5133C1.3061 10.2642 0.592351 9.90432 0 9.4327" transform="translate(98.05271 14.727706)" id="Fill-16" fill="#000000" fill-rule="evenodd" stroke="none" />
      <path d="M0 14.7452L0 0.605654L2.76718 0L2.76718 5.04978C3.17129 4.71319 3.61863 4.4571 4.1102 4.28215C4.60177 4.10754 5.13692 4.01973 5.7163 4.01973C6.92827 4.01973 7.92439 4.4102 8.70566 5.1908C9.48625 5.97206 9.87705 6.97583 9.87705 8.20078L9.87705 14.7452L7.10987 14.7452L7.10987 8.60455C7.10987 7.94534 6.91098 7.41286 6.51419 7.00876C6.11674 6.60499 5.58825 6.4031 4.92838 6.4031C4.4704 6.4031 4.05632 6.4939 3.68614 6.6755C3.31596 6.85743 3.00965 7.11685 2.76718 7.45344L2.76718 14.7452L0 14.7452Z" transform="translate(108.8591 10.667595)" id="Fill-17" fill="#000000" fill-rule="evenodd" stroke="none" />
      <path d="M2.64612 7.61508C2.64612 8.01918 2.82106 8.33914 3.17128 8.57461C3.52151 8.81042 3.98581 8.92783 4.56519 8.92783C5.02283 8.92783 5.4439 8.87062 5.82738 8.75621C6.21152 8.64213 6.56474 8.47683 6.88802 8.26131L6.88802 6.68581C6.5511 6.55144 6.19789 6.45366 5.82738 6.39279C5.45687 6.33259 5.07006 6.302 4.66596 6.302C4.03303 6.302 3.53813 6.42007 3.18126 6.65554C2.82439 6.89135 2.64612 7.21098 2.64612 7.61508M3.8378 10.9074C2.70698 10.9074 1.78437 10.6078 1.07095 10.0084C0.356873 9.40976 0 8.63215 0 7.67561C0 6.67949 0.383813 5.89823 1.15144 5.33248C1.91873 4.76707 2.97605 4.48404 4.32272 4.48404C4.75343 4.48404 5.18448 4.51763 5.61552 4.58514C6.04656 4.65266 6.47062 4.75344 6.88802 4.88814L6.88802 4.1408C6.88802 3.53448 6.69944 3.07716 6.32261 2.76718C5.94512 2.45754 5.39334 2.30255 4.66596 2.30255C4.22162 2.30255 3.74002 2.37339 3.22184 2.51475C2.70332 2.6561 2.11397 2.87528 1.45443 3.17129L0.444678 1.13115C1.26585 0.754324 2.06375 0.471286 2.83802 0.282705C3.6123 0.0944568 4.37627 0 5.13093 0C6.54478 0 7.64534 0.340244 8.43325 1.02007C9.22117 1.70022 9.61496 2.65976 9.61496 3.89834L9.61496 10.7258L6.88802 10.7258L6.88802 9.99845C6.44368 10.3084 5.97572 10.5373 5.48414 10.6849C4.99257 10.8333 4.44379 10.9074 3.8378 10.9074" transform="translate(120.331665 14.687162)" id="Fill-18" fill="#000000" fill-rule="evenodd" stroke="none" />
      <path d="M0 10.7661L0 0.242129L2.76718 0.242129L2.76718 1.39357C3.10377 0.93592 3.51119 0.589024 3.98913 0.353215C4.46707 0.118071 4.99589 0 5.57494 0C5.84401 0.0136364 6.06984 0.0372505 6.25144 0.0708426C6.43336 0.104435 6.59135 0.161641 6.72638 0.242129L6.72638 2.66608C6.52416 2.57228 6.30199 2.50144 6.05986 2.45421C5.81707 2.40698 5.56795 2.3837 5.31252 2.3837C4.77372 2.3837 4.27849 2.51807 3.82782 2.78747C3.37616 3.05687 3.02295 3.44734 2.76718 3.95887L2.76718 10.7661L0 10.7661Z" transform="translate(132.04713 14.646752)" id="Fill-19" fill="#000000" fill-rule="evenodd" stroke="none" />
      <path d="M5.35277 2.28226C4.71985 2.28226 4.17406 2.47417 3.71674 2.85765C3.25876 3.2418 2.94213 3.75698 2.76752 4.40322L7.91807 4.40322C7.74313 3.78392 7.42317 3.27539 6.95854 2.87827C6.49424 2.48115 5.95843 2.28226 5.35277 2.28226L5.35277 2.28226ZM9.91796 9.39246C9.2714 9.91763 8.60787 10.3011 7.92805 10.5436C7.24789 10.7857 6.49058 10.9074 5.65577 10.9074C4.86087 10.9074 4.11718 10.7657 3.42373 10.483C2.72993 10.2003 2.13093 9.81619 1.62605 9.3316C1.12084 8.84667 0.723725 8.27129 0.434368 7.60477C0.144679 6.93792 0 6.22118 0 5.45355C0 4.69956 0.137694 3.98914 0.41408 3.32262C0.689801 2.65577 1.07062 2.07705 1.55521 1.58514C2.04013 1.09424 2.61585 0.706763 3.28204 0.424058C3.94889 0.141353 4.65898 0 5.4133 0C6.15366 0 6.84379 0.144679 7.4837 0.434036C8.12328 0.723725 8.67539 1.11752 9.14002 1.61574C9.60466 2.11397 9.96818 2.70965 10.2309 3.40344C10.4934 4.0969 10.6247 4.84756 10.6247 5.65577L10.6247 6.38248L2.78747 6.38248C2.97605 7.04268 3.33925 7.5745 3.87805 7.97827C4.41685 8.38237 5.04978 8.58426 5.77683 8.58426C6.23448 8.58426 6.66552 8.51075 7.06962 8.36209C7.47373 8.21408 7.81696 8.00554 8.1 7.73581L9.91796 9.39246Z" transform="translate(139.2784 14.70755)" id="Fill-20" fill="#000000" fill-rule="evenodd" stroke="none" />
      <path d="M2.82838 0L5.65676 0C7.21863 0 8.48514 1.26652 8.48514 2.82838L8.48514 2.82838L0 2.82838C0 1.26652 1.26619 0 2.82838 0L2.82838 0Z" transform="translate(14.141908 5.6567626)" id="Path" fill="none" fill-rule="evenodd" stroke="none" />
      <path d="M0 0C1.56186 0 2.82838 1.26619 2.82838 2.82838L2.82838 2.82838L2.82838 14.1409C2.82838 15.7031 1.56186 16.969 0 16.969L0 16.969L0 0Z" transform="translate(28.283482 9.899002)" id="Path" fill="none" fill-rule="evenodd" stroke="none" />
      <path d="M0 20.5041L0 0L16.9703 0L16.9703 16.969L5.65676 16.969C4.16508 18.3223 2.67339 19.6749 1.18204 21.0283L1.18204 21.0283C1.04135 21.1557 0.874723 21.2129 0.711419 21.2129L0.711419 21.2129C0.347228 21.2129 0 20.9282 0 20.5041L0 20.5041Z" transform="translate(9.899336 9.899002)" id="Path" fill="none" fill-rule="evenodd" stroke="none" />
      <path d="M0 14.1409L0 2.82838C0 1.26619 1.26585 0 2.82838 0L2.82838 0L2.82838 16.969C1.26585 16.969 0 15.7031 0 14.1409L0 14.1409Z" transform="translate(5.6567626 9.899002)" id="Path" fill="none" fill-rule="evenodd" stroke="none" />
    </g>
    <g id="IconeImpostazioni" transform="translate(22.5 15)">
      <g id="IconeFrecciaSinistra" transform="matrix(-1 8.742278E-08 -8.742278E-08 -1 30.000004 29.999996)">
        <path d="M0 30L30 30L30 0L0 0L0 30Z" id="Stroke-3" fill="none" fill-rule="evenodd" stroke="none" />
        <path d="M2.14062 0.365625C3.90312 2.14063 5.66562 3.90313 7.44062 5.67813C5.66562 7.44063 3.90312 9.20313 2.14062 10.9781C1.65312 11.4656 0.853125 11.4656 0.365625 10.9781C-0.121875 10.4906 -0.121875 9.70313 0.365625 9.20313C1.54062 8.02812 2.72812 6.85313 3.90312 5.67813C2.72812 4.49062 1.54062 3.31563 0.365625 2.14063C-0.121875 1.65313 -0.121875 0.853125 0.365625 0.365625C0.853125 -0.121875 1.65312 -0.121875 2.14062 0.365625" transform="translate(11.096624 9.509251)" id="Fill-1" fill="#000000" fill-rule="evenodd" stroke="none" />
      </g>
    </g>
  </g>
</svg>