<?xml version="1.0" encoding="utf-8"?>
<svg width="688px" height="688px" viewbox="0 0 688 688" version="1.1" xmlns:xlink="http://www.w3.org/1999/xlink" xmlns="http://www.w3.org/2000/svg">
  <g id="IconeViaggio-Gruppo" transform="translate(0.5 0.5)">
    <path d="M0 687L687 687L687 0L0 0L0 687Z" id="Stroke-14" fill="none" fill-rule="evenodd" stroke="none" />
    <path d="M372.125 114.5C372.125 177.761 320.886 229 257.625 229C194.384 229 143.157 177.793 143.125 114.56C143.093 146.02 117.343 171.75 85.875 171.75C54.3875 171.75 28.625 145.988 28.625 114.5C28.625 83.0125 54.3875 57.25 85.875 57.25C117.343 57.25 143.093 82.9801 143.125 114.441C143.157 51.2066 194.384 0 257.625 0C320.886 0 372.125 51.2388 372.125 114.5ZM486.625 114.5C486.625 83.0125 460.863 57.25 429.375 57.25C397.888 57.25 372.125 83.0125 372.125 114.5C372.125 145.988 397.888 171.75 429.375 171.75C460.863 171.75 486.625 145.988 486.625 114.5ZM515.25 329.185L515.25 233.291C463.439 186.918 384.434 190.067 336.344 240.161C390.445 255.618 438.535 286.533 475.175 329.185L515.25 329.185ZM40.075 329.19C76.715 286.539 124.805 255.624 178.906 240.166C130.816 190.073 51.8113 186.924 0 233.296L0 329.19L40.075 329.19ZM449.702 515.241C488.059 515.241 515.539 478.315 504.375 441.675C472.029 332.356 371.555 257.616 257.628 257.616C143.7 257.616 43.2266 332.356 10.8803 441.675C-0.283445 478.315 27.1966 515.241 65.5541 515.241L449.702 515.241Z" transform="translate(85.875 85.875)" id="Fill-4" fill="#000000" fill-rule="evenodd" stroke="none" />
  </g>
</svg>