<svg xmlns="http://www.w3.org/2000/svg" width="696" height="696"><path fill="none" d="M.5 695.5h695V.5H.5v695Z"/><path fill-rule="evenodd" d="M476.871 270.105c37.935 35.33 36.487 95.852-2.925 129.443-41.96 35.88-83.95 71.817-125.94 107.725-41.99-35.908-83.979-71.845-125.968-107.725-39.384-33.59-40.832-94.114-2.896-129.443 37.646-35.33 97.88-30.117 128.864 11.294 30.985-41.41 91.22-46.623 128.865-11.294"/><path fill-rule="evenodd" d="M608.625 348.003c0-132.63-99.617-244.12-231.667-258.888v28.958c115.834 14.77 202.709 113.227 202.709 229.93 0 116.702-86.875 215.16-202.709 229.93v28.957c132.05-14.769 231.667-126.258 231.667-258.887Zm-521.25.008c0 132.63 99.617 244.09 231.667 258.888v-28.958c-115.834-14.798-202.709-113.228-202.709-229.93 0-116.702 86.875-215.189 202.709-229.929V89.124c-132.05 14.74-231.667 126.23-231.667 258.887Z"/></svg>
