<?xml version="1.0" encoding="utf-8"?>
<svg width="719px" height="719px" viewbox="0 0 719 719" version="1.1" xmlns:xlink="http://www.w3.org/1999/xlink" xmlns="http://www.w3.org/2000/svg">
  <g id="IconeViaggioOn-the-road" transform="translate(0.5 0.5)">
    <path d="M0 717.53L717.53 717.53L717.53 0L0 0L0 717.53Z" id="Stroke-12" fill="none" fill-rule="evenodd" stroke="none" />
    <path d="M478.353 418.559L478.353 89.6913C478.353 40.0621 438.291 0 388.662 0L149.485 0C99.8561 0 59.794 40.0621 59.794 89.6913L59.794 418.559C59.794 435.003 73.2477 448.456 89.6911 448.456L448.456 448.456C464.9 448.456 478.353 435.003 478.353 418.559ZM418.559 239.177L418.559 89.6911C418.559 73.2477 405.105 59.794 388.662 59.794L149.485 59.794C133.042 59.794 119.588 73.2477 119.588 89.6911L119.588 239.177C119.588 255.62 133.042 269.074 149.485 269.074L388.662 269.074C405.105 269.074 418.559 255.62 418.559 239.177ZM29.8971 269.074L29.8971 89.6915C13.4537 89.6915 0 103.145 0 119.589L0 239.177C0 255.62 13.4537 269.074 29.8971 269.074ZM538.148 119.589L538.148 239.177C538.148 255.62 524.694 269.074 508.251 269.074L508.251 89.6915C524.694 89.6915 538.148 103.145 538.148 119.589ZM149.485 328.868C165.929 328.868 179.382 342.321 179.382 358.765C179.382 375.208 165.929 388.662 149.485 388.662C133.042 388.662 119.588 375.208 119.588 358.765C119.588 342.321 133.042 328.868 149.485 328.868ZM388.662 328.868C405.106 328.868 418.559 342.321 418.559 358.765C418.559 375.208 405.106 388.662 388.662 388.662C372.219 388.662 358.765 375.208 358.765 358.765C358.765 342.321 372.219 328.868 388.662 328.868ZM179.383 478.353L179.383 508.25C179.383 524.694 165.929 538.147 149.486 538.147L119.589 538.147C103.145 538.147 89.6915 524.694 89.6915 508.25L89.6915 478.353L179.383 478.353ZM448.456 508.25L448.456 478.353L358.765 478.353L358.765 508.25C358.765 524.694 372.219 538.147 388.662 538.147L418.559 538.147C435.003 538.147 448.456 524.694 448.456 508.25Z" transform="translate(89.69153 89.69153)" id="Fill-3" fill="#000000" fill-rule="evenodd" stroke="none" />
  </g>
</svg>