<?xml version="1.0" encoding="utf-8"?>
<svg width="546px" height="455px" viewbox="0 0 546 455" version="1.1" xmlns:xlink="http://www.w3.org/1999/xlink" xmlns="http://www.w3.org/2000/svg">
  <path d="M546 91L546 136.5C495.647 136.5 455 177.147 455 227.5C455 277.853 495.647 318.5 546 318.5L546 394.333C546 427.7 518.7 455 485.333 455L60.6667 455C27.3 455 0 427.7 0 394.333L0 318.5C50.3533 318.5 91 277.853 91 227.5C91 177.147 50.3533 136.5 0 136.5L0 91L0 60.6667C0 27.3 27.3 0 60.6667 0L485.333 0C518.7 0 546 27.3 546 60.6667L546 91ZM289.684 377.65C292.413 379.774 296.66 377.044 295.447 373.404C293.93 368.854 292.413 364 290.897 359.147C289.38 355.507 290.29 353.08 293.627 350.957C297.57 347.924 301.513 344.89 305.457 342.16C308.49 339.734 306.974 335.184 303.333 335.184L288.47 335.184C284.527 335.184 282.404 333.667 281.19 330.027C279.673 325.174 278.157 320.624 276.64 315.77C275.427 312.13 270.573 312.13 269.36 315.77C267.843 320.624 266.327 325.174 264.81 330.027C263.597 333.667 261.473 335.184 257.53 335.184L242.667 335.184C239.027 335.184 237.51 339.734 240.543 342.16C244.487 344.89 248.43 347.924 252.373 350.957C255.71 353.08 256.62 355.507 255.103 359.147C253.587 364 252.07 368.854 250.553 373.404C249.643 377.044 253.587 379.774 256.62 377.65C260.563 374.92 264.507 371.887 268.45 368.854C271.787 366.73 274.214 366.73 277.55 368.854C281.493 371.887 285.437 374.92 289.684 377.65L289.684 377.65Z" id="Fill-1" fill="#000000" fill-rule="evenodd" stroke="none" />
</svg>