<svg width="604" height="804" viewBox="0 0 604 804" fill="none" xmlns="http://www.w3.org/2000/svg">
<circle cx="302" cy="744" r="60" fill="white"/>
<path fill-rule="evenodd" clip-rule="evenodd" d="M528.5 302.001C528.5 427.078 427.078 528.5 302.001 528.5C176.922 528.5 75.5002 427.078 75.5002 302.001C75.5002 176.922 176.922 75.5002 302.001 75.5002C427.078 75.5002 528.5 176.922 528.5 302.001ZM476.406 327.167C445.199 324.902 445.199 279.099 476.406 276.834C465.332 199.572 404.429 138.669 327.167 127.596C324.902 158.802 279.099 158.802 276.834 127.596C199.572 138.669 138.669 199.572 127.596 276.834C158.802 279.099 158.802 324.902 127.596 327.167C138.669 404.429 199.572 465.332 276.834 476.406C279.099 445.199 324.902 445.199 327.167 476.406C404.429 465.332 465.332 404.429 476.406 327.167ZM393.352 227.25C378.001 259.464 362.65 291.677 347.298 323.639C342.013 334.964 334.966 342.01 323.641 347.295C291.68 362.647 259.467 377.999 227.253 393.351C216.682 398.636 205.358 387.31 210.643 376.74C225.995 344.552 241.346 312.313 256.698 280.352C261.983 269.027 269.03 261.98 280.354 256.696C312.316 241.343 344.555 225.992 376.743 210.64C387.313 205.355 398.638 216.681 393.352 227.25ZM301.998 327.162C315.839 327.162 327.165 315.837 327.165 301.995C327.165 288.154 315.839 276.828 301.998 276.828C288.156 276.828 276.831 288.154 276.831 301.995C276.831 315.837 288.156 327.162 301.998 327.162Z" fill="white"/>
</svg>
