<?xml version="1.0" encoding="utf-8"?>
<svg width="658px" height="658px" viewbox="0 0 658 658" version="1.1" xmlns:xlink="http://www.w3.org/1999/xlink" xmlns="http://www.w3.org/2000/svg">
  <path d="M10.6556 165.642L62.3179 113.979L10.6556 62.3168C-3.55074 48.1105 -3.55185 24.863 10.6556 10.6556C24.863 -3.55185 48.1116 -3.55185 62.3179 10.6544L113.98 62.3168L165.643 10.6544C179.849 -3.55185 203.098 -3.55185 217.305 10.6556C231.512 24.863 231.511 48.1105 217.305 62.3168L165.643 113.979L217.305 165.642C231.512 179.849 231.512 203.098 217.305 217.305C203.098 231.512 179.85 231.511 165.643 217.304L113.98 165.642L62.3179 217.304C48.1105 231.511 24.863 231.512 10.6556 217.305C-3.55185 203.098 -3.55185 179.849 10.6556 165.642" transform="translate(214.84502 214.84427)" id="Fill-1" fill="#000000" fill-rule="evenodd" stroke="none" />
  <path d="M255.724 8.26057C432.925 -32.0372 609.093 79.0378 649.389 255.723C689.687 432.924 578.613 609.093 401.928 649.39C224.726 689.687 48.5568 578.613 8.26016 401.927C-32.0365 224.725 79.0386 48.5572 255.724 8.26057M398.31 612.708C554.847 574.48 650.94 416.392 612.736 259.365C574.479 102.803 416.393 6.70984 259.339 44.9407C102.803 83.1705 6.71056 241.257 44.9415 398.311C83.1701 554.846 241.258 650.939 398.31 612.708Z" id="Fill-2" fill="#000000" fill-rule="evenodd" stroke="none" />
</svg>