<?xml version="1.0" encoding="utf-8"?>
<svg width="637px" height="637px" viewbox="0 0 637 637" version="1.1" xmlns:xlink="http://www.w3.org/1999/xlink" xmlns="http://www.w3.org/2000/svg">
  <defs>
    <path d="M0 637L637 637L637 0L0 0L0 637Z" id="path_1" />
    <clipPath id="mask_1">
      <use xlink:href="#path_1" />
    </clipPath>
  </defs>
  <g id="IconeAccountCerchio">
    <path d="M0 637L637 637L637 0L0 0L0 637Z" id="Clip-11" fill="none" fill-rule="evenodd" stroke="none" />
    <g clip-path="url(#mask_1)">
      <path d="M203.84 430.102C101.92 417.108 25.48 330.476 25.48 227.791C25.48 125.107 101.92 38.4748 203.84 25.48L203.84 0C87.6512 12.74 0 111.093 0 227.791C0 344.49 87.6512 442.588 203.84 455.582L203.84 430.102ZM458.64 227.794C458.64 111.095 370.989 12.7424 254.8 0.00241098L254.8 25.4824C356.72 38.4772 433.16 125.109 433.16 227.794C433.16 330.478 356.72 417.11 254.8 430.105L254.8 455.585C370.989 442.59 458.64 344.492 458.64 227.794ZM229.32 74.9109C257.348 74.9109 280.28 97.8429 280.28 125.871C280.28 153.899 257.348 176.831 229.32 176.831C201.292 176.831 178.36 153.899 178.36 125.871C178.36 97.8429 201.292 74.9109 229.32 74.9109ZM327.923 329.711C344.739 329.711 356.715 313.914 352.638 297.861C319.769 170.461 138.861 170.461 105.992 297.861C101.915 313.914 113.891 329.711 130.707 329.711L327.923 329.711Z" transform="translate(89.17966 90.708855)" id="Fill-22" fill="#000000" fill-rule="evenodd" stroke="none" />
    </g>
  </g>
</svg>