<?xml version="1.0" encoding="utf-8"?>
<svg width="663px" height="664px" viewbox="0 0 663 664" version="1.1" xmlns:xlink="http://www.w3.org/1999/xlink" xmlns="http://www.w3.org/2000/svg">
  <path d="M110.505 257.844L110.505 184.174L36.8349 184.174C16.5757 184.174 0 167.599 0 147.339C0 127.08 16.5757 110.505 36.8349 110.505L110.505 110.505L110.505 36.8349C110.505 16.5757 127.08 0 147.339 0C167.599 0 184.174 16.5757 184.174 36.8349L184.174 110.505L257.844 110.505C278.103 110.505 294.679 127.08 294.679 147.339C294.679 167.599 278.103 184.174 257.844 184.174L184.174 184.174L184.174 257.844C184.174 278.103 167.599 294.679 147.339 294.679C127.08 294.679 110.505 278.103 110.505 257.844" transform="translate(184.1565 184.16054)" id="Fill-1" fill="#000000" fill-rule="evenodd" stroke="none" />
  <path d="M50.8184 155.061C148.431 -0.0137194 353.233 -46.4256 507.939 50.8184C663.014 148.431 709.426 353.233 612.182 507.939C514.569 663.014 309.767 709.426 155.061 612.182C-0.0137194 514.569 -46.4256 309.767 50.8184 155.061M583.451 484.365C667.803 345.498 623.601 164.27 484.402 79.55C345.498 -4.80183 164.27 39.4 79.55 178.636C-4.80183 317.503 39.4 498.731 178.636 583.451C317.503 667.803 498.731 623.601 583.451 484.365Z" id="Fill-2" fill="#000000" fill-rule="evenodd" stroke="none" />
</svg>