<?xml version="1.0" encoding="utf-8"?>
<svg width="775px" height="646px" viewbox="0 0 775 646" version="1.1" xmlns:xlink="http://www.w3.org/1999/xlink" xmlns="http://www.w3.org/2000/svg">
  <path d="M774.641 129.107L774.641 86.0712C774.641 38.732 735.908 0 688.569 0L86.0712 0C38.732 0 0 38.732 0 86.0712L0 129.107L774.641 129.107ZM688.573 645.542L86.0752 645.542C38.736 645.542 0.00401306 606.767 0.00401306 559.471L0.00401306 215.186L774.645 215.186L774.645 559.471C774.645 606.767 735.869 645.542 688.573 645.542ZM198.828 537.524C238.421 582.281 312.012 554.307 312.012 494.918C312.012 435.529 238.421 407.513 198.828 452.313C159.666 407.513 86.075 435.529 86.075 494.918C86.075 554.307 159.666 582.281 198.828 537.524Z" id="Fill-3" fill="#000000" fill-rule="evenodd" stroke="none" />
</svg>