<?xml version="1.0" encoding="utf-8"?>
<svg width="668px" height="668px" viewbox="0 0 668 668" version="1.1" xmlns:xlink="http://www.w3.org/1999/xlink" xmlns="http://www.w3.org/2000/svg">
  <g id="IconeViaggio-gratis" transform="translate(0.5 0.5)">
    <path d="M0 666L666 666L666 0L0 0L0 666Z" id="Stroke-10" fill="none" fill-rule="evenodd" stroke="none" />
    <g id="Group-9" transform="translate(76.312485 83.25)">
      <path d="M152.631 55.5C152.631 70.7625 140.143 83.25 124.881 83.25C109.618 83.25 97.1309 70.7625 97.1309 55.5L97.1309 27.75C97.1309 12.4875 109.618 0 124.881 0C140.143 0 152.631 12.4875 152.631 27.75L152.631 55.5ZM374.631 83.25C389.894 83.25 402.381 70.7625 402.381 55.5L402.381 27.75C402.381 12.4875 389.894 0 374.631 0C359.369 0 346.881 12.4875 346.881 27.75L346.881 55.5C346.881 70.7625 359.369 83.25 374.631 83.25ZM319.131 55.5L180.381 55.5C180.381 86.025 155.406 111 124.881 111C94.3559 111 69.3809 86.025 69.3809 55.5L55.5059 55.5C24.9809 55.5 0.00590604 80.475 0.00590604 111L0.00590604 138.75L499.506 138.75L499.506 111C499.506 80.475 474.531 55.5 444.006 55.5L430.131 55.5C430.131 86.025 405.156 111 374.631 111C344.106 111 319.131 86.025 319.131 55.5ZM444 499.5L55.5 499.5C24.975 499.5 0 474.525 0 444L0 166.5L499.5 166.5L499.5 444C499.5 474.525 474.525 499.5 444 499.5ZM189.255 449.828C203.963 439.283 218.67 428.46 233.378 417.638C243.09 410.7 256.41 410.7 266.123 417.638C280.83 428.46 295.565 439.283 310.245 449.828C321.068 457.875 335.775 447.053 331.613 434.288C326.063 417.083 320.235 399.6 314.685 382.395C311.078 371.018 314.963 358.253 324.675 351.315C339.66 340.493 354.368 329.948 369.075 319.125C379.925 311.355 374.348 294.15 360.75 294.15L306.083 294.15C294.15 294.15 283.605 286.38 279.72 275.003C274.17 257.52 268.62 240.315 262.793 223.11C258.908 210.345 240.593 210.345 236.43 223.11C230.88 240.315 225.33 257.52 219.78 275.003C215.895 286.38 205.35 294.15 193.418 294.15L138.75 294.15C125.153 294.15 119.603 311.355 130.425 319.125C145.41 329.948 160.118 340.493 174.825 351.315C184.538 358.253 188.423 371.018 184.815 382.395C179.265 399.6 173.438 417.083 167.888 434.288C163.725 447.053 178.433 457.875 189.255 449.828Z" transform="translate(6.9315834 0)" id="Fill-7" fill="#000000" fill-rule="evenodd" stroke="none" />
    </g>
  </g>
</svg>