<svg width="804" height="804" id="ico-likeregalo" viewBox="0 0 804 804" fill="none" xmlns="http://www.w3.org/2000/svg">
    <path class="outer" id="esterno-likeregalo" fill-rule="evenodd" clip-rule="evenodd" d="M368.542 667.659C234.708 650.595 134.333 536.837 134.333 401.999C134.333 267.162 234.708 153.405 368.542 136.341V102.882C215.972 119.946 100.875 248.76 100.875 401.999C100.875 555.239 215.972 684.053 368.542 701.117V667.659ZM703.125 402.003C703.125 248.763 588.028 119.949 435.458 102.885V136.344C569.292 153.408 669.667 267.165 669.667 402.003C669.667 536.84 569.292 650.598 435.458 667.662V701.12C588.028 684.056 703.125 555.242 703.125 402.003Z" fill="white" stroke="black" stroke-width="5"/>
    <path id="Fill-likeregalo" fill-rule="evenodd" clip-rule="evenodd" d="M401.846 283.953L402.2 284.306L402.554 283.953L450.308 236.199C469.789 216.717 503.302 223.341 513.822 249.058C524.344 274.777 505.642 302.833 477.581 302.833H326.818C298.757 302.833 280.055 274.777 290.577 249.058C301.097 223.341 334.611 216.717 354.091 236.199L354.445 235.845L354.091 236.199L401.846 283.953ZM579.3 382.267V401.5H422.433V343.3H540.333C561.764 343.3 579.3 360.836 579.3 382.267ZM381.967 343.3V401.5H225.1V382.267C225.1 360.836 242.636 343.3 264.067 343.3H381.967ZM264.567 441.967H381.967V579.1H303.533C282.103 579.1 264.567 561.564 264.567 540.133V441.967ZM539.833 540.133C539.833 561.564 522.297 579.1 500.867 579.1H422.433V441.967H539.833V540.133Z" fill="white" stroke="black" stroke-width="5"/>
</svg>
