<?xml version="1.0" encoding="UTF-8"?>
<svg xmlns:xlink="http://www.w3.org/1999/xlink" xmlns="http://www.w3.org/2000/svg" width="804px" height="804px" viewbox="0 0 804 804" version="1.1">
  <g id="IconeX-con-cerchio" transform="translate(0.5 0.5)">
    <path d="M0 803L803 803L803 0L0 0L0 803Z" id="Stroke-8" fill="none" fill-rule="evenodd" stroke="none"></path>
    <path d="M57.2974 199.161C44.2486 212.209 22.8353 212.209 9.78656 199.161C-3.26219 186.112 -3.26219 164.699 9.78656 151.65L57.2974 104.474L9.78656 57.2974C-3.26219 44.2486 -3.26219 22.8353 9.78656 9.78656C22.8353 -3.26219 44.2486 -3.26219 57.2974 9.78656L104.474 57.2974L151.65 9.78656C164.699 -3.26219 186.145 -3.26219 199.161 9.78656C212.209 22.8353 212.209 44.2486 199.161 57.2974L151.65 104.474L199.161 151.65C212.209 164.699 212.209 186.112 199.161 199.161C186.145 212.209 164.699 212.209 151.65 199.161L104.474 151.65L57.2974 199.161Z" transform="translate(297.0193 297.0295)" id="Fill-26" fill="#000000" fill-rule="evenodd" stroke="none"></path>
    <path d="M267.667 564.777C133.833 547.713 33.4583 433.955 33.4583 299.117C33.4583 164.28 133.833 50.5221 267.667 33.4583L267.667 0C115.097 17.0637 0 145.878 0 299.117C0 452.357 115.097 581.171 267.667 598.235L267.667 564.777ZM602.25 299.121C602.25 145.881 487.153 17.0668 334.583 0.00307178L334.583 33.4614C468.417 50.5252 568.792 164.283 568.792 299.121C568.792 433.958 468.417 547.716 334.583 564.78L334.583 598.238C487.153 581.174 602.25 452.36 602.25 299.121Z" transform="translate(100.375 102.382416)" id="Fill-6" fill="#000000" fill-rule="evenodd" stroke="none"></path>
  </g>
</svg>
