<?xml version="1.0" encoding="utf-8"?>
<svg width="722px" height="602px" viewbox="0 0 722 602" version="1.1" xmlns:xlink="http://www.w3.org/1999/xlink" xmlns="http://www.w3.org/2000/svg">
  <path d="M721.6 120.267L721.6 180.4C655.052 180.4 601.333 234.119 601.333 300.667C601.333 367.214 655.052 420.933 721.6 420.933L721.6 521.156C721.6 565.253 685.52 601.333 641.422 601.333L80.1778 601.333C36.08 601.333 0 565.253 0 521.156L0 420.933C66.5476 420.933 120.267 367.214 120.267 300.667C120.267 234.119 66.5476 180.4 0 180.4L0 120.267L0 80.1778C0 36.08 36.08 0 80.1778 0L641.422 0C685.52 0 721.6 36.08 721.6 80.1778L721.6 120.267ZM382.849 338.751C386.457 341.558 392.07 337.95 390.466 333.139C388.462 327.126 386.457 320.711 384.453 314.297C382.448 309.487 383.651 306.279 388.061 303.473C393.272 299.464 398.484 295.455 403.695 291.847C407.704 288.64 405.7 282.627 400.889 282.627L381.246 282.627C376.034 282.627 373.228 280.623 371.624 275.812C369.62 269.398 367.615 263.384 365.611 256.97C364.007 252.159 357.593 252.159 355.99 256.97C353.985 263.384 351.981 269.398 349.976 275.812C348.373 280.623 345.566 282.627 340.355 282.627L320.711 282.627C315.901 282.627 313.896 288.64 317.905 291.847C323.117 295.455 328.328 299.464 333.54 303.473C337.95 306.279 339.152 309.487 337.148 314.297C335.143 320.711 333.139 327.126 331.134 333.139C329.932 337.95 335.143 341.558 339.152 338.751C344.364 335.143 349.575 331.135 354.787 327.126C359.197 324.319 362.404 324.319 366.814 327.126C372.025 331.135 377.237 335.143 382.849 338.751L382.849 338.751ZM382.849 499.107C386.457 501.913 392.07 498.305 390.466 493.495C388.462 487.481 386.457 481.067 384.453 474.653C382.448 469.842 383.651 466.635 388.061 463.829C393.272 459.82 398.484 455.811 403.695 452.203C407.704 448.996 405.7 442.983 400.889 442.983L381.246 442.983C376.034 442.983 373.228 440.978 371.624 436.167C369.62 429.753 367.615 423.74 365.611 417.326C364.007 412.515 357.593 412.515 355.99 417.326C353.985 423.74 351.981 429.753 349.976 436.167C348.373 440.978 345.566 442.983 340.355 442.983L320.711 442.983C315.901 442.983 313.896 448.996 317.905 452.203C323.117 455.811 328.328 459.82 333.54 463.829C337.95 466.635 339.152 469.842 337.148 474.653C335.143 481.067 333.139 487.481 331.134 493.495C329.932 498.305 335.143 501.913 339.152 499.107C344.364 495.499 349.575 491.49 354.787 487.481C359.197 484.675 362.404 484.675 366.814 487.481C372.025 491.49 377.237 495.499 382.849 499.107L382.849 499.107Z" id="Fill-1" fill="#000000" fill-rule="evenodd" stroke="none" />
</svg>