<?xml version="1.0" encoding="utf-8"?>
<svg width="647px" height="647px" viewbox="0 0 647 647" version="1.1" xmlns:xlink="http://www.w3.org/1999/xlink" xmlns="http://www.w3.org/2000/svg">
  <g id="IconeViaggioRelax" transform="translate(0.5 0.5)">
    <path d="M0 646L646 646L646 0L0 0L0 646Z" id="Stroke-3" fill="none" fill-rule="evenodd" stroke="none" />
    <path d="M242.25 53.8333C242.25 83.4417 218.025 107.667 188.417 107.667L201.875 107.667C246.557 107.667 282.625 143.735 282.625 188.417C282.625 233.098 246.557 269.167 201.875 269.167L215.333 269.167C274.819 269.167 323 317.347 323 376.833C323 436.319 274.819 484.5 215.333 484.5L107.667 484.5C48.1808 484.5 0 436.319 0 376.833C0 317.347 48.1808 269.167 107.667 269.167L121.125 269.167C76.4433 269.167 40.375 233.098 40.375 188.417C40.375 143.735 76.4433 107.667 121.125 107.667L132.968 107.667C104.167 106.859 80.75 82.9033 80.75 53.8333C80.75 24.225 104.975 0 134.583 0L188.417 0C218.025 0 242.25 24.225 242.25 53.8333M134.583 53.8331C139.967 48.4498 139.967 40.1056 134.583 34.7223C129.2 29.6081 120.856 29.6081 115.472 34.7223C104.975 45.2198 104.975 62.4464 115.472 72.9439C120.856 78.0581 129.2 78.0581 134.583 72.9439C139.967 67.5606 139.967 59.2164 134.583 53.8331M50.6034 319.77C19.1109 351.263 19.1109 402.404 50.6034 433.897C55.7175 439.28 64.3309 439.28 69.7142 433.897C74.8284 428.783 74.8284 420.169 69.7142 414.786C48.45 393.791 48.45 359.876 69.7142 338.881C74.8284 333.498 74.8284 324.884 69.7142 319.77C64.3309 314.387 55.7175 314.387 50.6034 319.77M83.1724 226.369C88.2866 231.753 96.8999 231.753 102.014 226.369C107.397 221.255 107.397 212.642 102.014 207.528C91.5166 197.03 91.5166 179.803 102.014 169.306C107.397 164.192 107.397 155.578 102.014 150.464C96.8999 145.081 88.2866 145.081 83.1724 150.464C61.9082 171.459 61.9082 205.374 83.1724 226.369" transform="translate(161.5 80.74999)" id="Fill-1" fill="#000000" fill-rule="evenodd" stroke="none" />
  </g>
</svg>