<?xml version="1.0" encoding="utf-8"?>
<svg width="703px" height="703px" viewbox="0 0 703 703" version="1.1" xmlns:xlink="http://www.w3.org/1999/xlink" xmlns="http://www.w3.org/2000/svg">
  <g id="IconeViaggioSport" transform="translate(0.5 0.5)">
    <path d="M0 702L702 702L702 0L0 0L0 702Z" id="Stroke-18" fill="none" fill-rule="evenodd" stroke="none" />
    <path d="M248.338 248.332L248.338 0C183.111 3.8025 121.393 31.59 75.4708 78.0975C117.591 125.19 142.161 185.152 145.671 248.332L248.338 248.332ZM450.461 78.1091C408.341 125.202 383.771 185.164 380.261 248.344L277.594 248.344L277.594 0.0115993C342.821 3.8141 404.539 31.6016 450.461 78.1091ZM116.427 248.339L0.0116143 248.339C3.22911 191.009 20.4866 145.379 56.1716 100.334C91.8566 141.576 113.209 193.641 116.427 248.339ZM409.512 248.339L525.926 248.339C522.709 191.009 505.451 145.379 469.766 100.334C434.052 141.576 412.729 193.641 409.512 248.339ZM116.415 277.588L0 277.588C3.2175 334.918 20.475 380.548 56.16 425.593C91.845 384.351 113.197 332.286 116.415 277.588ZM248.338 277.588L248.338 525.921C183.111 522.118 121.393 494.331 75.4708 447.823C117.591 400.731 142.161 340.768 145.671 277.588L248.338 277.588ZM525.915 277.588L409.5 277.588C412.717 332.286 434.07 384.351 469.784 425.593C505.44 380.548 522.697 334.918 525.915 277.588ZM277.588 277.594L277.588 525.926C342.816 522.124 404.533 494.336 450.456 447.829C408.336 400.736 383.766 340.774 380.256 277.594L277.588 277.594Z" transform="translate(88.03653 88.03654)" id="Fill-19" fill="#000000" fill-rule="evenodd" stroke="none" />
  </g>
</svg>