<?xml version="1.0" encoding="utf-8"?>
<svg width="557px" height="557px" viewbox="0 0 557 557" version="1.1" xmlns:xlink="http://www.w3.org/1999/xlink" xmlns="http://www.w3.org/2000/svg">
  <g id="IconeFrecciaSinistra" transform="matrix(-1 -1.509958E-07 1.509958E-07 -1 555.5 555.50006)">
    <path d="M0 555L555 555L555 0L0 0L0 555Z" id="Stroke-3" fill="none" fill-rule="evenodd" stroke="none" />
    <path d="M39.6016 6.76406C72.2078 39.6016 104.814 72.2078 137.652 105.045C104.814 137.652 72.2078 170.258 39.6016 203.095C30.5828 212.114 15.7828 212.114 6.76406 203.095C-2.25469 194.077 -2.25469 179.508 6.76406 170.258C28.5016 148.52 50.4703 126.783 72.2078 105.045C50.4703 83.0766 28.5016 61.3391 6.76406 39.6016C-2.25469 30.5828 -2.25469 15.7828 6.76406 6.76406C15.7828 -2.25469 30.5828 -2.25469 39.6016 6.76406" transform="translate(205.28735 175.92084)" id="Fill-1" fill="#000000" fill-rule="evenodd" stroke="none" />
  </g>
</svg>